<svg xmlns="http://www.w3.org/2000/svg" viewBox="0 0 76.97 85.7"><path d="M30.08,47a.79.79,0,0,0-.4-.1c-.36,0-.65.21-.65.48,0,0,0,.06,0,.09Z" style="fill:#164194"/><path d="M26.6,48.27a3,3,0,0,1,.71,1.59c.07.87-.69,1.78,1.45,4s1.68,3.44,1.68,3.44a2.91,2.91,0,0,1-.64,1.52c-.49.39-1.16,2.1-7.14,4.17S15,64,13.6,63a1.45,1.45,0,0,1-.46-1.3,1.24,1.24,0,0,1-.48-.68,4.86,4.86,0,0,1,.64-2.71c.68-1.29,2.1-3.72,6.62-6.47,0,0,2.94-2.05,3.72-2.67s2.48-1.42,3-.88" style="fill:#164194"/><path d="M38.14,40.42a7.38,7.38,0,0,1,5.53-2.91c4-.43,3.94-.1,4.44.14s2.27,1.46,2.62,1.67C51.86,40,54,40.43,54,40.6s-2.45-.07-2.81,0a1,1,0,0,0-.88,1.11h0c0,.8.1,1.39-.08,1.39-.61,0-.65-1.7-.82-2.13a5.46,5.46,0,0,0-1.1-1.8,2.88,2.88,0,0,0-1-.4,1.61,1.61,0,0,0,.23.77c.28.56.42.92.29,1s-.95-.71-1.21-.76a1.78,1.78,0,0,0-1.35-.5c-.86,0-2.69.1-3.57,1.31a29,29,0,0,0-1.85,3.9c-.15.15-1.34-1.66-1.57-2a2.24,2.24,0,0,1-.11-2" style="fill:#164194"/><path d="M41.48,47.25a6.5,6.5,0,0,0,3.15,1c1.67,0,5-.56,5.1-1.57s-.15-2.37.11-2.35.88,2.37,2.41,2.37,1.78,0,2.2-.41,1.46-2.39,1.7-2.19-.93,2.81-2,3.57a47.39,47.39,0,0,1-6,2.45,12.91,12.91,0,0,1-5.42.56c-1.2-.3-.28-1-1-1.4s-.71-2-.3-2" style="fill:#164194"/><path d="M42,50.37c-.14-.2,0-.35-.2-.59s-.73-.65-.94-1.14a1.47,1.47,0,0,1,.24-1.4c.25-.33.88-.26.94-.39s0-.37-.32-.56-.37-1.19-.48-1.32-.21.22-.81.13-.84-.51-1.25-.91a11.16,11.16,0,0,1-1.45-2.5,1.14,1.14,0,0,1-.11-.54.93.93,0,0,0-.32-.8s-.15,1.06-.17,1.27a5.19,5.19,0,0,0,1.06,2.69c.84,1,1.32,1.31,1.4,1.89a8,8,0,0,0,.47,2.52,12.53,12.53,0,0,0,1,.89l.9.76" style="fill:#164194"/><path d="M38.56,52.86a7.73,7.73,0,0,0,2.4-.08,2.72,2.72,0,0,1,.78-.84c.45-.26.69-.39.77-.66s-.44-.62-.58-.82c0,0-.62.25-.78.34a8.77,8.77,0,0,0-1.08.85c-.25.24-.7.76-.9.9,0,0-.66.23-.62.31" style="fill:#164194"/><path d="M41.87,50.36s-.93-.59-1.16-.77a10.86,10.86,0,0,1-1-.88,8,8,0,0,1-.47-2.52c-.08-.58-.56-.9-1.4-1.89a3.87,3.87,0,0,1-.8-2.56c0-.21.18-1.38.18-1.38a3.2,3.2,0,0,0-1-.26c-.21,0-.06.8-.29,1.09s-.61.58-1.74.74A1.77,1.77,0,0,0,32.5,43.8a2.51,2.51,0,0,0,.42,1.71A18.51,18.51,0,0,1,35.16,48c.55.9.23,1.77.45,2.33A5,5,0,0,0,37,51.88a2.82,2.82,0,0,0,1.35.69c.57,0,.69-.15.69-.15.19-.15.64-.67.89-.9A8.87,8.87,0,0,1,41,50.67l.78-.34" style="fill:#164194"/><path d="M32.15,46a2.19,2.19,0,0,0-.23.83c0,.35.23.51.79,1.06a2.43,2.43,0,0,1,.73,1.58,4.61,4.61,0,0,0,1.79,3.23c.9.7,1.48.39,1.48.39s0,.51-1.12,1.33a4.11,4.11,0,0,0-1.37,1.35,1.51,1.51,0,0,1-1.66.6,5.56,5.56,0,0,1-2-.54,9.26,9.26,0,0,1-1-1.93,5.74,5.74,0,0,0-1.2-2.09,18.7,18.7,0,0,1-.61-1.88,2.83,2.83,0,0,0-.63-1.17s-.49-.78.72-.84a13,13,0,0,0,3.74-1.55Z" style="fill:#164194"/><path d="M36.62,52a4.81,4.81,0,0,1-1.26-1.4c-.23-.56.09-1.44-.45-2.34a13.87,13.87,0,0,0-2.16-2.43s-.21,0-.25.09a2,2,0,0,0-.24.83c0,.36.24.51.79,1.07a2.35,2.35,0,0,1,.74,1.57,4.56,4.56,0,0,0,1.78,3.23c.9.71,1.33.43,1.52.41s.8-.13.78-.23a12.61,12.61,0,0,0-1.25-.8" style="fill:#164194"/><path d="M31.56,38.61a1,1,0,0,0-.37.86s-.11.25,1.42,1.1l0,0L34.35,42" style="fill:none;stroke:#164194;stroke-miterlimit:10;stroke-width:0.30000001192092896px"/><path d="M31.9,39a4,4,0,0,0-.4.8" style="fill:none;stroke:#164194;stroke-miterlimit:10;stroke-width:0.30000001192092896px"/><path d="M32.06,39.16a3.91,3.91,0,0,0-.4.79" style="fill:none;stroke:#164194;stroke-miterlimit:10;stroke-width:0.30000001192092896px"/><path d="M32.23,39.28a3.63,3.63,0,0,0-.39.79" style="fill:none;stroke:#164194;stroke-miterlimit:10;stroke-width:0.30000001192092896px"/><path d="M31.75,38.86a2.45,2.45,0,0,0-.4.81" style="fill:none;stroke:#164194;stroke-miterlimit:10;stroke-width:0.30000001192092896px"/><path d="M40.38,45a4.15,4.15,0,0,1,.18-1.4c.21-.33.13-.31.84-.08A5.25,5.25,0,0,1,43.06,45" style="fill:none;stroke:#164194;stroke-miterlimit:10;stroke-width:0.30000001192092896px"/><path d="M43.21,47a6.51,6.51,0,0,1,.95,1.32" style="fill:none;stroke:#164194;stroke-miterlimit:10;stroke-width:0.30000001192092896px"/><path d="M48.45,58.42a1,1,0,0,1-.87.35s-.27.1-1-1.45L46.28,57a6.53,6.53,0,0,1-.94-1.27c-.39-.71-.58-1.4-1.3-2.6a4.35,4.35,0,0,0-1.52-1.61" style="fill:none;stroke:#164194;stroke-miterlimit:10;stroke-width:0.30000001192092896px"/><path d="M48.06,58.07a3.91,3.91,0,0,1-.8.38" style="fill:none;stroke:#164194;stroke-miterlimit:10;stroke-width:0.30000001192092896px"/><path d="M47.91,57.91a4.52,4.52,0,0,1-.8.38" style="fill:none;stroke:#164194;stroke-miterlimit:10;stroke-width:0.30000001192092896px"/><path d="M47.8,57.73a4.52,4.52,0,0,1-.8.38" style="fill:none;stroke:#164194;stroke-miterlimit:10;stroke-width:0.30000001192092896px"/><path d="M48.2,58.23a2.46,2.46,0,0,1-.82.38" style="fill:none;stroke:#164194;stroke-miterlimit:10;stroke-width:0.30000001192092896px"/><path d="M33.9,56.55l4.69,4.13a3,3,0,0,1,.18-.65.75.75,0,0,1,.38-.25c.18-.09-.21-.52-.21-.52L34.6,55.6s-.33-.11-.51.07-.42.68-.19.88" style="fill:#164194"/><path d="M38.61,60.57s3.22.83,4,1.06l1.91.23a7.11,7.11,0,0,1,1,.73c.19.23,0-.7,0-.7a3.94,3.94,0,0,1,0-1.37c.16-.54-.52.16-.52.16s-.19.3-1.71.14a14.87,14.87,0,0,1-4.11-1" style="fill:#164194"/><path d="M23.85,62.66s.56,1.06.69,1,.29-1,.81-.18.06-1.54.06-1.54a7.76,7.76,0,0,1-1.56.68" style="fill:#164194"/><path d="M25.52,63.64a62,62,0,0,0-2,7.82l-.16.44c-.05-.32-.45-.27-.45-.27s.54-2.34.65-3.34a20.05,20.05,0,0,1,1-4.59" style="fill:#164194"/><path d="M30,58.77a5.93,5.93,0,0,1,.3,1.82,5.54,5.54,0,0,0,.34,1.91.79.79,0,0,1,.52-.39.7.7,0,0,1,.61.13c.45.26-.36-.29-.55-2.43a5.54,5.54,0,0,0-.67-2.7A3.65,3.65,0,0,1,30,58.77" style="fill:#164194"/><path d="M30.67,62.5a41.51,41.51,0,0,0,1.09,5.3c.56,1.62.18,2.16.18,2.16s.54-.29.72,0c0,0,.24,0-.15-1.23A14.29,14.29,0,0,1,32.08,66c-.08-.48-.12-.7-.24-1.37a15.39,15.39,0,0,1,0-2.35" style="fill:#164194"/><path d="M26.22,52.93c-3.69,0-12.85,8.68-12.85,8.68" style="fill:none;stroke:#fff;stroke-linecap:round;stroke-miterlimit:10;stroke-width:0.30000001192092896px"/><path d="M26.7,51.53A6.38,6.38,0,0,0,27.37,53c.2.33-1.09-.11-1.09-.11S26.28,51.8,26.7,51.53Z" style="fill:none;stroke:#fff;stroke-linecap:round;stroke-miterlimit:10;stroke-width:0.30000001192092896px"/><path d="M18.6,52.48s-1-.74-1.24-.47-.38.74-.2,1a1.37,1.37,0,0,0,.33.35Z" style="fill:#164194"/><path d="M17.24,53.4a1.23,1.23,0,0,1-.33-.35c-.18-.24,0-.7.2-1a11.42,11.42,0,0,0-.92,1.16c0,.14-.43,1.49-.43,1.49l1.29-1.08Z" style="fill:#164194"/><path d="M25.32,48.06A.67.67,0,0,0,25,48a.59.59,0,0,0-.67.45,3,3,0,0,1,.48-.23l.47-.16" style="fill:#164194"/><path d="M10.08,61.1s-1.19.18-.78,1.65a3.53,3.53,0,0,1,.27-1,2.93,2.93,0,0,1,.51-.65" style="fill:#164194"/><path d="M10.08,61.1s-.94.76.15,1.82a3.53,3.53,0,0,1-.27-1,2.86,2.86,0,0,1,.12-.82" style="fill:#164194"/><path d="M43.2,49.62a18.69,18.69,0,0,0,8.5-1.89" style="fill:none;stroke:#fff;stroke-linecap:round;stroke-miterlimit:10;stroke-width:0.30000001192092896px"/><path d="M45.29,61s2.44.27,4.32.6a6.66,6.66,0,0,1,3.13,1.26l-.37.26s-.08-.45-2.11-.95a37.78,37.78,0,0,0-5-.66s.29-.12.29-.24-.29-.26-.29-.26" style="fill:#164194"/><path d="M32.56,70c.06.19.81,2.4,1.44,2.86,1.38,1,1.94,1.54,2.32,1.85s0,.48,0,.48a21.75,21.75,0,0,0-2.17-1.65A7.47,7.47,0,0,1,32,70.06s.47-.24.53,0" style="fill:#164194"/><path d="M23.35,72a3.94,3.94,0,0,1-2.12,1.27c-1.22.19-2.82.18-3.73.34a3.94,3.94,0,0,0-1.61.8l-.2-.17a5.6,5.6,0,0,1,1.75-.9,30,30,0,0,0,3.79-.48,4.17,4.17,0,0,0,1.64-1,.5.5,0,0,1,.27,0,.68.68,0,0,1,.21.17" style="fill:#164194"/><path d="M13.55,58.63s-1.87.83-2.4,1.18a6,6,0,0,0-1.44,1.46c0,.09.13,0,.26,0h.09a6.33,6.33,0,0,1,1.28-1.2c.7-.43,2.21-1.1,2.21-1.1Z" style="fill:#164194"/><path d="M16.11,74.07s-1.32.2-.87,1.81a4.39,4.39,0,0,1,.3-1.1,3.55,3.55,0,0,1,.57-.71" style="fill:#164194"/><path d="M15.87,74.28s-.83,1,.59,1.93a4.5,4.5,0,0,1-.53-1,3.08,3.08,0,0,1-.06-.91" style="fill:#164194"/><path d="M36.26,75a.88.88,0,0,1,.47.62c0,.41-.43,1-1.12,1.5a4.19,4.19,0,0,0,.68-1.45,3.76,3.76,0,0,0,0-.67" style="fill:#164194"/><path d="M36.18,75a.9.9,0,0,1,.76-.17c.39.13.71.8.9,1.64,0,0-.61-1-1-1.22a5.5,5.5,0,0,0-.63-.25" style="fill:#164194"/><path d="M52.46,63a.89.89,0,0,1,.63-.45c.41,0,1,.47,1.46,1.18A4.59,4.59,0,0,0,53.13,63a5,5,0,0,0-.67,0" style="fill:#164194"/><path d="M52.21,63s.76.13.88.51a2.53,2.53,0,0,1-.2,1.6,4.44,4.44,0,0,0-.26-1.58,4.39,4.39,0,0,0-.41-.53" style="fill:#164194"/><path d="M23.89,14.1h8.55v2.24H26.52v5.85h4.55v2.29H26.52v6.31h6.36v2.29h-9Z" style="fill:#e30613"/><rect x="35.79" y="14.1" width="2.63" height="18.98" style="fill:#e30613"/><path d="M43.83,26.87v1.75c0,1.73.72,2.7,2,2.7,1.16,0,1.8-.85,1.8-2.39,0-1.37-.65-2.5-2.5-4.38l-.77-.77c-1.55-1.57-3-3.3-3-6.08,0-2.32,1.7-3.89,4.33-3.89s4.1,1.5,4.1,4.2c0,.36,0,.59-.08,1.21H47.39v-.9c0-1.67-.57-2.47-1.75-2.47A1.65,1.65,0,0,0,44,17.49a1.21,1.21,0,0,0,0,.19c0,1.8,1.16,3,2.89,4.71,1.8,1.86,3.34,3.48,3.34,6.21s-1.75,4.71-4.42,4.71c-2.92,0-4.4-1.7-4.4-5.05V26.87Z" style="fill:#e30613"/><path d="M0,18.43.35,18l4.36,3.21L3.42,17.9l.35-.48,1,2.62,3.58.65L8,21.18l-3-.54.37,1,1.47,1.08-.35.48Z" style="fill:#164194"/><path d="M9.44,16.51a2.93,2.93,0,0,1,.79,1.14A1.37,1.37,0,0,1,10,19.08c-.75.8-2,.56-3.3-.65s-1.69-2.5-1-3.26a1.38,1.38,0,0,1,1.41-.3A4.6,4.6,0,0,1,8.92,16L7.13,17.93c.7.63,1.78,1.59,2.49.84.42-.45.24-1.05-.56-1.86Zm-1.3-.37c-1-.88-1.62-1.07-2.05-.61s-.2,1.18.69,2.06Z" style="fill:#164194"/><path d="M9.14,13a1.31,1.31,0,0,1,.34-1.34,1.26,1.26,0,0,1,1.84.35L14,15.2l-.45.38L11,12.47c-.54-.64-.92-.79-1.29-.48a1.43,1.43,0,0,0-.11,1.48l2.72,3.22-.45.37L8.22,12.77l.44-.37Z" style="fill:#164194"/><path d="M13,10a1.29,1.29,0,0,1,.5-1.29c.6-.4,1.29-.16,1.78.57l2.31,3.53-.49.32L14.86,9.7c-.46-.7-.82-.89-1.22-.63a1.43,1.43,0,0,0-.29,1.45L15.66,14l-.49.33L12.09,9.68l.49-.33Z" style="fill:#164194"/><path d="M15.12,4.94l.52-.29.52,1-.53.28Zm1.15,2.15.52-.27,2.65,4.94-.52.28Z" style="fill:#164194"/><path d="M20.34,9.3c.47.9.92,1.15,1.53.89a.93.93,0,0,0,.4-1.2c-.24-.57-.77-.64-1.35-.72-.84-.1-1.62-.22-2-1a1.38,1.38,0,0,1,.63-1.85h0c1.3-.56,1.94.84,2.16,1.3l-.49.21c-.41-.87-.94-1.26-1.46-1a.8.8,0,0,0-.38,1.07h0c.22.51.78.6,1.5.68a1.91,1.91,0,0,1,1.82,1,1.47,1.47,0,0,1-.65,2l-.13.06c-1.32.57-2-.78-2.14-1.16Z" style="fill:#164194"/><path d="M26.82,6.7A3.26,3.26,0,0,1,27,8a1.35,1.35,0,0,1-1,1.24C25,9.53,24,8.67,23.5,7s-.25-3,.78-3.31a1.59,1.59,0,0,1,1.87,1.25V5l.07.25-.53.16c-.43-1.42-1.07-1.3-1.28-1.23-.67.2-.77,1-.3,2.55s1,2.25,1.72,2,.71-.8.42-1.87Z" style="fill:#164194"/><path d="M31.29,5.84a3.11,3.11,0,0,1-.06,1.39,1.33,1.33,0,0,1-1,1c-1.09.19-2-.75-2.26-2.5s.15-3,1.18-3.2a1.4,1.4,0,0,1,1.31.6,4.67,4.67,0,0,1,.74,2l-2.57.46c.18.92.47,2.34,1.48,2.16.61-.11.83-.69.67-1.82Zm-.82-1.07c-.27-1.3-.66-1.83-1.28-1.72s-.87.83-.68,2.06Z" style="fill:#164194"/><path d="M33.18,2.83A1.3,1.3,0,0,1,34.26,2c.71,0,1.2.51,1.25,1.39l.25,4.22-.59,0-.23-4.06c0-.84-.27-1.19-.74-1.16s-.8.5-1,1.11l.24,4.21-.59,0-.32-5.6.59,0Z" style="fill:#164194"/><path d="M36.86,2.09c.44,0,1-.08,1.07-2.09h.27l-.07,2,.76,0,0,.5-.79,0-.16,4.32c0,.28.07.4.26.41s.25,0,.42-.25l.15.23c-.3.38-.52.51-.82.5s-.6-.37-.58-1l.15-4.27-.66,0Z" style="fill:#164194"/><path d="M40.86,3.64a4.5,4.5,0,0,1,.92-1.11,1,1,0,0,1,.95-.18l-.08.71-.16,0a.93.93,0,0,0-.93.16,3,3,0,0,0-.77,1.23l-.4,3.39-.59-.07.66-5.58.57.07Z" style="fill:#164194"/><path d="M44.33,2.71l.57.13-.92,4c-.16.74,0,1.17.4,1.27.59.14,1.22-.67,1.24-.77l1-4.16.57.13L45.9,8.82l-.57-.13L45.48,8a1.31,1.31,0,0,1-1.26.54c-.71-.16-1-.81-.83-1.7Z" style="fill:#164194"/><path d="M49.17,3.88l.54.21-.24.63a1.36,1.36,0,0,1,1.35-.28,1.16,1.16,0,0,1,.71,1.15,1.42,1.42,0,0,1,1.4-.34c.7.27.94,1,.59,1.87L52,11l-.54-.21,1.43-3.7c.31-.81.25-1.3-.17-1.46-.58-.23-1.29.43-1.34.56l-1.54,4L49.3,10l1.41-3.64c.2-.5.49-1.28-.1-1.5-.42-.17-.91,0-1.4.58L47.69,9.32l-.55-.22Z" style="fill:#164194"/><path d="M58.27,8.13l.5.31-3,4.76-.5-.31Zm1.29-2.08.51.32-.58.92L59,7Z" style="fill:#164194"/><path d="M60.43,10.44a1.31,1.31,0,0,1,1.39,0A1.26,1.26,0,0,1,62,12.22l-.1.11-2.5,3.4-.47-.34,2.41-3.29c.5-.67.55-1.07.16-1.36A1.42,1.42,0,0,0,60,11l-2.49,3.39L57.07,14,60.4,9.5l.47.35Z" style="fill:#164194"/><path d="M61.91,15.55c-.64.78-.69,1.3-.21,1.75A.92.92,0,0,0,63,17.2c.43-.45.28-1,.13-1.53-.25-.81-.45-1.57.17-2.22a1.37,1.37,0,0,1,1.93-.16l0,0c1,1,0,2.12-.33,2.5l-.39-.36c.64-.72.78-1.37.37-1.75a.8.8,0,0,0-1.13.07h0c-.38.4-.24,1,0,1.65a1.91,1.91,0,0,1-.22,2.08,1.46,1.46,0,0,1-2.06.19.52.52,0,0,1-.11-.1c-1.05-1-.07-2.11.21-2.42Z" style="fill:#164194"/><path d="M66.87,20.48a3.39,3.39,0,0,1-1.23.65,1.37,1.37,0,0,1-1.39-.4c-.71-.85-.33-2.07,1-3.21s2.68-1.39,3.36-.58a1.39,1.39,0,0,1,.13,1.43A4.58,4.58,0,0,1,67.42,20l-1.69-2c-.71.63-1.79,1.59-1.13,2.37.4.48,1,.37,1.91-.33Zm.52-1.26c1-.87,1.25-1.48.84-2s-1.15-.33-2.12.45Z" style="fill:#164194"/><path d="M69.44,24.23a3.1,3.1,0,0,1-1.2.5,1.35,1.35,0,0,1-1.46-.59c-.59-.9,0-2.05,1.44-3s2.8-1.1,3.39-.21A1.6,1.6,0,0,1,71,23.08l0,0-.22.14-.3-.46c1.24-.81.94-1.4.82-1.58-.39-.58-1.19-.44-2.53.44s-1.86,1.64-1.47,2.23,1,.45,1.91-.13Z" style="fill:#164194"/><path d="M72.88,23.38c.23.38.56.8,2.34-.12l.13.24-1.77.94.35.67-.44.24-.37-.7-3.82,2c-.25.13-.31.26-.23.42s.18.19.43.24l-.12.25c-.48-.06-.7-.19-.84-.46s0-.71.55-1l3.76-2-.31-.59Z" style="fill:#164194"/><path d="M72.48,30.63a3.19,3.19,0,0,1-1.36.25,1.35,1.35,0,0,1-1.21-.8c-.43-1,.31-2.07,1.94-2.75s3-.52,3.38.45a1.38,1.38,0,0,1-.3,1.41,4.62,4.62,0,0,1-1.79,1.16l-1-2.41c-.87.38-2.19,1-1.79,1.92.24.57.85.66,1.92.26Zm.87-1c1.21-.54,1.64-1,1.4-1.62s-1-.66-2.16-.21Z" style="fill:#164194"/><path d="M75.84,31.83a1.3,1.3,0,0,1,1.08.86c.2.69-.23,1.28-1.08,1.53l-4,1.15-.17-.56,3.92-1.12c.8-.23,1.1-.51,1-1A1.43,1.43,0,0,0,75.2,32l-4,1.15L71,32.6l5.4-1.54.16.56Z" style="fill:#164194"/><path d="M74.1,41a2,2,0,0,1-.8,0,1.08,1.08,0,0,1-.81-.94,1.09,1.09,0,0,1,.22-.78c.29-.36.77-.54,1.77-.66,1.19-.13,1.72,0,2,.34a1,1,0,0,1,.23.54,1,1,0,0,1-.2.77c-.26.32-.6.46-1.49.57l-.32,0-.18-1.56-.23,0c-.67.08-1.32.18-1.26.7q.06.51,1,.42Zm1.05-.91.16,0c.46,0,1-.13,1-.56s-.63-.37-1.12-.32l-.14,0Z" style="fill:#e30613"/><path d="M76,42.41c.43.16.94.34,1,.85s-.42.72-1.34.75l-2.82.08,0-.66,2.92-.09c.47,0,.7-.12.7-.32s-.59-.53-1.34-.51l-2.3.06,0-.67,4.15-.12v.61Z" style="fill:#e30613"/><path d="M75.65,46.53c.85.1,1.25.52,1.19,1.21s-.46,1-1.21.95l-2-.18a2.9,2.9,0,0,0-.83,0,.76.76,0,0,0-.32.11l.06-.67a1.81,1.81,0,0,1,.61-.14c-.42-.3-.59-.56-.56-.89.05-.54.46-.76,1.25-.69a1.25,1.25,0,0,1,.9.4,1.16,1.16,0,0,1,.21.77A2,2,0,0,0,75,48l.71.06c.33,0,.53-.1.56-.35s-.18-.46-.8-.52Zm-1.1,1.39c-.06-.68-.15-.91-.77-1q-.66-.06-.69.3c0,.3.35.57.86.62Z" style="fill:#e30613"/><path d="M75.49,50.56c.39.25.87.53.77,1s-.56.62-1.46.46L72,51.55l.12-.66,2.88.52c.46.08.71,0,.74-.17s-.46-.64-1.21-.78l-2.26-.41.12-.66,4.08.73-.11.6Z" style="fill:#e30613"/><path d="M76.68,55.35,76.5,56l-5.26-1.43.14-.5a3.29,3.29,0,0,0,.7.11c-.3-.22-.63-.56-.52-1a.65.65,0,0,1,.33-.41,2.8,2.8,0,0,1,1.83.1c.77.2,1.64.46,1.89.89a.72.72,0,0,1,.07.52.81.81,0,0,1-.77.55ZM74.26,53.8l-1-.28c-.62-.16-1.13-.27-1.21,0a.35.35,0,0,0,.06.28c.18.32.78.5,1.18.6.8.22,1.28.35,1.66.13a.45.45,0,0,0,.2-.21c.08-.27-.33-.41-.88-.56" style="fill:#e30613"/><path d="M71.51,58.09a2,2,0,0,1-.69-.4,1.09,1.09,0,0,1-.1-1.55,1.07,1.07,0,0,1,.34-.25c.42-.19.92-.14,1.87.2,1.13.41,1.56.72,1.68,1.21A1.08,1.08,0,0,1,74,58.48c-.36.17-.74.14-1.58-.16l-.3-.11.54-1.48-.23-.08c-.62-.23-1.25-.42-1.43.07-.12.32.11.59.67.79Zm1.34-.35.15.06c.43.16,1,.34,1.14-.06s-.39-.61-.86-.78l-.13-.05Z" style="fill:#e30613"/><path d="M72.37,60.22l.2.26c.56.7.54.81.36,1.21l-.71-.32a.51.51,0,0,0,.09-.16c.17-.35,0-.79-.44-1.21l-2.3-1,.28-.62,3.77,1.72-.27.6Z" style="fill:#e30613"/><path d="M68.94,63.28a2,2,0,0,1-.62-.5,1.11,1.11,0,0,1,.14-1.55,1.33,1.33,0,0,1,.37-.2c.45-.12.94,0,1.83.49,1,.58,1.42,1,1.47,1.46a1.1,1.1,0,0,1-.74,1.08c-.39.11-.76,0-1.54-.4l-.28-.15.76-1.38L70.12,62c-.58-.32-1.17-.61-1.43-.15-.16.3,0,.6.54.89Zm1.38-.14.14.08c.4.22.93.49,1.14.12s-.29-.67-.73-.91l-.12-.06Z" style="fill:#e30613"/><path d="M69.55,67a1,1,0,0,1-.84,1.14,2.48,2.48,0,0,1-1.69-.7c-.48-.34-1.2-.9-1.29-1.47a.93.93,0,0,1,.17-.74,1,1,0,0,1,.68-.42,2.63,2.63,0,0,1,1.68.71c.73.53,1.21.92,1.3,1.48m-.61.44c.24-.34-.34-.76-1-1.24-.85-.61-1.39-1-1.62-.67s.3.73,1.12,1.32,1.27.9,1.5.59" style="fill:#e30613"/><path d="M66.81,69.42c.21.41.48.88.14,1.27s-.8.25-1.49-.34l-2.15-1.84.43-.5L66,69.91c.35.3.6.38.73.22s-.08-.78-.65-1.27l-1.75-1.5.44-.51,3.15,2.69-.4.46Z" style="fill:#e30613"/><path d="M62.08,69.33c-.15-.1-.31-.06-.5.12a.57.57,0,0,0,0,.79.52.52,0,0,0,.11.1l.27.26a.86.86,0,0,1,.2-.89.72.72,0,0,1,.52-.2c.44,0,.92.46,1.45,1,.75.77,1.17,1.23,1.17,1.73a.77.77,0,0,1-.22.5.82.82,0,0,1-.93.08l.39.4-.48.47L61.34,71A1.13,1.13,0,0,1,61,69.38a1.32,1.32,0,0,1,.28-.3c.52-.51,1-.48,1.25-.21ZM63.54,71c-.65-.66-1-1.06-1.3-.82a.39.39,0,0,0-.09.26c0,.4.42.84,1,1.4a2.3,2.3,0,0,0,1.13.76.39.39,0,0,0,.34-.11c.18-.18-.06-.48-.49-.92Z" style="fill:#e30613"/><path d="M59.57,73.9a1.84,1.84,0,0,1-.4-.69,1.11,1.11,0,0,1,.71-1.39,1.13,1.13,0,0,1,.41,0c.47,0,.87.35,1.52,1.13s1,1.41.83,1.9a1,1,0,0,1-.32.48,1,1,0,0,1-.76.25c-.41,0-.71-.25-1.29-.94l-.2-.24,1.22-1-.16-.18c-.42-.51-.86-1-1.27-.67-.26.22-.2.57.18,1Zm1.33.39.1.12c.3.35.69.8,1,.53s0-.73-.35-1.11l-.09-.11Z" style="fill:#e30613"/><path d="M60.65,76.55l-.51.35-2.08-2.12,1.08,2.79-.42.28-2.16-2.08,1.16,2.74-.5.34-1.55-4,.42-.28,2.13,2-1.08-2.74.43-.29Z" style="fill:#e30613"/><path d="M53,78a2,2,0,0,1-.24-.76,1.09,1.09,0,0,1,1-1.21,1,1,0,0,1,.43,0c.44.14.78.52,1.26,1.42.56,1.06.66,1.58.42,2a1,1,0,0,1-.41.4,1.06,1.06,0,0,1-.8.1c-.39-.12-.64-.4-1.07-1.19l-.14-.28,1.39-.74-.11-.21c-.31-.58-.65-1.15-1.11-.91-.3.16-.32.51,0,1Zm1.23.65.08.14c.21.4.5.92.88.72s.13-.72-.11-1.16L55,78.22Z" style="fill:#e30613"/><path d="M52.22,80.15c0,.14,0,.25,0,.32-.06.9-.15,1-.55,1.15l-.31-.71.17-.06c.36-.16.54-.58.49-1.2l-1-2.31.62-.27,1.66,3.8-.62.26Z" style="fill:#e30613"/><path d="M50.77,81.92l-.62.21-1.53-2.55.34,3-.62.21L48,78.47l.51-.18Z" style="fill:#e30613"/><path d="M44.48,81a2,2,0,0,1,0-.8,1.08,1.08,0,0,1,1.22-.94.94.94,0,0,1,.4.13c.4.24.64.68.89,1.67.29,1.16.27,1.69-.07,2.06a1,1,0,0,1-.5.3,1,1,0,0,1-.79-.1c-.35-.21-.53-.54-.76-1.4l-.08-.31,1.53-.39-.06-.23c-.16-.64-.35-1.27-.86-1.14-.33.08-.43.42-.28,1Zm1,.92,0,.15c.12.45.28,1,.69.91s.29-.67.17-1.14l0-.14Z" style="fill:#e30613"/><rect x="43.12" y="79.75" width="0.67" height="5.45" transform="translate(-14.14 9.17) rotate(-10.37)" style="fill:#e30613"/><path d="M40.79,85.62l-.67.08-.64-5.42.53-.06a3.36,3.36,0,0,0,.15.7c.09-.36.29-.79.71-.84a.57.57,0,0,1,.5.15A2.83,2.83,0,0,1,42,82a3.48,3.48,0,0,1-.13,2.09.77.77,0,0,1-.45.26.83.83,0,0,1-.81-.51Zm.54-2.82-.12-1c-.08-.64-.17-1.15-.48-1.11a.42.42,0,0,0-.25.16,2.14,2.14,0,0,0-.12,1.32c.1.83.16,1.32.5,1.6a.43.43,0,0,0,.28.11c.28,0,.26-.46.19-1" style="fill:#e30613"/><path d="M36.29,81.82A1.87,1.87,0,0,1,36.4,81a1.1,1.1,0,0,1,1.4-.67,1.17,1.17,0,0,1,.37.22c.33.32.47.81.5,1.82,0,1.2-.1,1.71-.51,2a1.06,1.06,0,0,1-.55.18,1,1,0,0,1-.75-.27c-.3-.28-.4-.64-.44-1.53v-.32l1.57,0v-.24c0-.66-.07-1.32-.6-1.3-.34,0-.51.32-.49.92ZM37.1,83v.16c0,.46,0,1,.48,1s.43-.6.41-1.09v-.14Z" style="fill:#e30613"/><path d="M34.69,83.6c-.2.42-.42.92-.93.89s-.68-.48-.63-1.39l.15-2.82.67,0-.16,2.92c0,.46.06.7.26.71s.58-.53.62-1.29l.13-2.3.67,0-.23,4.14-.6,0Z" style="fill:#e30613"/></svg>