<svg xmlns="http://www.w3.org/2000/svg" viewBox="0 0 111.09 60.31"><path d="M66.69,53a1.88,1.88,0,0,0-1.79.8V53h-.78v7.16h.78V55.5c0-1.11.5-1.77,1.54-1.77h.25Zm-7.18.57a2.53,2.53,0,0,1,2.7,2.33v.23H56.87a2.58,2.58,0,0,1,2.6-2.56h0M63,56.77c0-.15,0-.35,0-.44a3.3,3.3,0,0,0-3.13-3.48h-.37a3.7,3.7,0,0,0,.11,7.4A3.38,3.38,0,0,0,62.9,58l-.6-.26a2.74,2.74,0,0,1-2.66,1.78A2.69,2.69,0,0,1,56.84,57v-.21Zm-8.83-4.89h-.78V53h-.77v.68h.77v4.82c0,1.1.3,1.72,1.61,1.72.23,0,.51,0,.68,0v-.68h-.6c-.81,0-.91-.42-.91-1.14V53.65h1.53V53H54.19Zm-3.08,8.25h.78V55.39c0-1.39-.65-2.5-2.25-2.5a2,2,0,0,0-1.72.83V53h-.78v7.17h.78V55.53c0-1.17.56-1.94,1.63-1.94s1.56.7,1.56,1.87Zm-8.57-6.59a2.53,2.53,0,0,1,2.7,2.33v.23H39.9a2.58,2.58,0,0,1,2.6-2.56h0m3.51,3.23c0-.15,0-.35,0-.44a3.32,3.32,0,0,0-3.13-3.49h-.37a3.7,3.7,0,0,0,.11,7.4A3.4,3.4,0,0,0,45.94,58l-.6-.26a2.76,2.76,0,0,1-2.67,1.78A2.69,2.69,0,0,1,39.87,57v-.21Zm-7.84,1.78a3.76,3.76,0,0,1-2.58,1,3.82,3.82,0,0,1-3.9-3.76c0-.1,0-.21,0-.32A3.85,3.85,0,0,1,38,52.28l.47-.55a4.18,4.18,0,0,0-2.92-1,4.82,4.82,0,0,0,0,9.63,4.33,4.33,0,0,0,3-1.24Z" style="fill:#ef4e23"/><path d="M89.09,50l3.83-9.51h-.85l-2.42,6.18-2.59-6.18h-.87l3,7.17L88.3,50ZM84.21,39.43h-.78v1.08h-.77v.69h.77V46c0,1.1.3,1.71,1.61,1.71.23,0,.51,0,.69,0V47h-.6c-.82,0-.91-.41-.91-1.14V41.2h1.52v-.69H84.22Zm-2.85.14a.63.63,0,1,0-.63-.62.61.61,0,0,0,.61.62h0m.39.94H81v7.17h.78ZM76.39,42.2a1.1,1.1,0,0,1,1.08-1.13.55.55,0,0,1,.18,0c.86,0,1.27.54,1.31,1.43h.74A1.87,1.87,0,0,0,78,40.44a1.45,1.45,0,0,0-.36,0,1.82,1.82,0,0,0-2,1.61,1.27,1.27,0,0,0,0,.2A1.76,1.76,0,0,0,76.78,44c.45.22.93.31,1.39.5a1.34,1.34,0,0,1-.48,2.63c-1.13,0-1.49-.73-1.52-1.61h-.76a2.26,2.26,0,0,0,4.5.27,1.94,1.94,0,0,0-1.39-2c-.5-.2-.9-.26-1.34-.46a1.14,1.14,0,0,1-.79-1.13m-1.31-1.69a1.91,1.91,0,0,0-1.8.8v-.8h-.77v7.16h.77V43c0-1.11.51-1.76,1.54-1.76h.26Zm-7.18.57a2.53,2.53,0,0,1,2.7,2.33,1.77,1.77,0,0,1,0,.23H65.26a2.58,2.58,0,0,1,2.6-2.56h0m3.51,3.23c0-.15,0-.35,0-.44a3.3,3.3,0,0,0-3.13-3.48h-.37A3.7,3.7,0,0,0,68,47.8a3.4,3.4,0,0,0,3.27-2.21l-.6-.26A2.76,2.76,0,0,1,68,47.11a2.69,2.69,0,0,1-2.8-2.58v-.21Zm-12.87-3.8h-.86l3,7.17h.84l2.92-7.17h-.82l-2.5,6.27Zm-2-.94a.63.63,0,1,0-.63-.63.6.6,0,0,0,.61.63h0m.38.94h-.77v7.17h.77Zm-8.74,3.59a2.76,2.76,0,1,1,0,.19,1.21,1.21,0,0,1,0-.19m5.64,3.58h.77V37.9h-.77v3.92A3.32,3.32,0,0,0,51,40.4a3.59,3.59,0,0,0-3.65,3.52v.19a3.52,3.52,0,0,0,3.31,3.7H51a3.16,3.16,0,0,0,2.8-1.51ZM39.3,44.11a3.53,3.53,0,0,0,3.35,3.7h.29a3.7,3.7,0,1,0-3.64-3.76v.06m.8,0a2.76,2.76,0,1,1,0,.2,1.34,1.34,0,0,1,0-.2m-2.35-4.53a.63.63,0,0,0,.63-.63.62.62,0,0,0-.63-.62.63.63,0,0,0-.63.62.62.62,0,0,0,.61.63h0m.39.94h-.78v7.17h.78Zm-4.85-1.39a1.55,1.55,0,0,1,1.77,1.3,1.28,1.28,0,0,1,0,.39,1.58,1.58,0,0,1-1.42,1.73,1.45,1.45,0,0,1-.36,0H32.14V39.13Zm.1,4.1a1.74,1.74,0,0,1,2,1.83A1.78,1.78,0,0,1,33.74,47a2,2,0,0,1-.35,0H32.14V43.23Zm2.8,1.83a2.23,2.23,0,0,0-1.42-2.26,2.16,2.16,0,0,0,1.14-2c0-1.61-1-2.37-2.62-2.37H31.36v9.27h2.06a2.53,2.53,0,0,0,2.76-2.27,2.17,2.17,0,0,0,0-.36" style="fill:#ef4e23"/><path d="M106.09,26.68c0-.42.31-.68.8-.68.66,0,1,.41,1,1.07h3c0-2.53-1.6-3.58-4-3.58s-4,1.3-4,3.43a3.21,3.21,0,0,0,2.35,3.33,13.52,13.52,0,0,0,1.66.44c.68.14.91.35.91.8s-.39.67-.95.67c-.84,0-1-.6-1-1.15h-3.14c-.08,1.92.86,3.77,4.11,3.77,2.2,0,4.2-1.05,4.2-3.64,0-2-.86-2.88-2.78-3.42-.37-.1-.86-.18-1.33-.29-.62-.12-.89-.35-.89-.76m-6-3.47a1.89,1.89,0,1,0-1.87-1.9v0a1.88,1.88,0,0,0,1.87,1.87m1.7.43H98.46v11h3.31ZM97,19.6H93.67v15H97ZM83.8,29.12a2.53,2.53,0,0,1,2.28-2.73,2.81,2.81,0,0,1,.29,0A2.57,2.57,0,0,1,89,28.94c0,.06,0,.12,0,.18a2.52,2.52,0,0,1-2.27,2.75h-.28a2.57,2.57,0,0,1-2.6-2.53,1.85,1.85,0,0,1,0-.23m5.31,5.51h3v-11H89v.7a4.49,4.49,0,0,0-2.88-.88,5.69,5.69,0,0,0,0,11.37,4.48,4.48,0,0,0,3-.9ZM80,23.57a2.15,2.15,0,0,0-1.93.82v-.76H74.79v11H78.1V28.07c0-.68.23-1,1.11-1H80Zm-12.32.06H64.4v7.22c0,2.28,1,3.91,3.44,3.91A2.9,2.9,0,0,0,70,33.93v.7h3.29v-11H70v6.83c0,.8-.41,1.34-1.17,1.34s-1.11-.54-1.11-1.34Zm-6-1.75H58.4v1.75h-1v2.78h1v5.37c0,1.89,1,3,3.1,3a5.19,5.19,0,0,0,1.66-.21V31.77h-.55c-.6,0-.91-.24-.91-1V26.41h1.47V23.63H61.7ZM48,29.12a2.53,2.53,0,0,1,2.29-2.73,2.62,2.62,0,0,1,.28,0,2.56,2.56,0,0,1,2.58,2.55,1.09,1.09,0,0,1,0,.18,2.52,2.52,0,0,1-2.27,2.75h-.28a2.57,2.57,0,0,1-2.6-2.53,1.77,1.77,0,0,1,0-.23m5.31,5.51h3v-11H53.19v.7a4.49,4.49,0,0,0-2.88-.88,5.69,5.69,0,0,0,0,11.37,4.48,4.48,0,0,0,2.95-.9Zm-13.1,0h3.39V20.4H40.24V29l-5.35-8.6H31.35V34.63h3.32V26.22Z" style="fill:#ef4e23"/><path d="M25.47,4.53A4.52,4.52,0,0,0,20.93.06a4.47,4.47,0,0,0-4.47,4.47h0V14.94L8.23,2.06A4.47,4.47,0,0,0,0,4.45H0V30.33a4.47,4.47,0,1,0,8.93,0V19.75l8.32,13a4.46,4.46,0,0,0,8.22-2.4h0Z" style="fill:#ef4e23"/><path d="M25.52,43.08h0a4.47,4.47,0,0,1-4.47,4.47H4.43a4.47,4.47,0,0,1,0-8.94H21.05a4.47,4.47,0,0,1,4.47,4.47h0" style="fill:#ef4e23"/><path d="M25.52,55.54h0A4.47,4.47,0,0,1,21.05,60H4.43a4.47,4.47,0,0,1,0-8.93H21.05a4.47,4.47,0,0,1,4.47,4.46h0" style="fill:#ef4e23"/></svg>