<svg xmlns="http://www.w3.org/2000/svg" viewBox="0 0 212.66 40.16"><path d="M80.14,3.94,76.36,14.2H74.8L72.22,6.85c-.87,2.4-1.89,5-2.76,7.35H68.08L64.3,3.94h1.88l2.59,6.67,2.42-6.67h1.9l2.58,6.67,2.41-6.67Z" style="fill:#005172"/><path d="M110.13,6.67h-2.07V5.82h-6.55v6.33l.17.17h6.38V10.27h-2.24V8.38h4.31v3.77a2.22,2.22,0,0,1-2.07,2h-6.38a2.06,2.06,0,0,1-1.9-2V5.82a1.9,1.9,0,0,1,1.9-1.88h6.38a2.07,2.07,0,0,1,2.07,1.88Z" style="fill:#005172"/><path d="M125.64,5.82h-7.59V8h6V9.92h-6v2.4h7.59V14.2h-9.48V3.94h9.48Z" style="fill:#005172"/><path d="M139.76,3.94h1.9V14.2h-2.07l-6.38-7.52V14.2h-1.9V3.94h2.08l6.37,7.52Z" style="fill:#005172"/><rect x="147.35" y="3.94" width="1.89" height="10.27" style="fill:#005172"/><path d="M163.37,3.94h1.89V14.2H163.2l-6.38-7.52V14.2h-1.9V3.94H157l6.38,7.52Z" style="fill:#005172"/><path d="M181.29,6.67h-1.9V5.82h-6.55v6.33a.18.18,0,0,0,.17.17h6.38V10.27h-2.24V8.38h4.14v3.77a2.06,2.06,0,0,1-1.9,2H173a2.09,2.09,0,0,1-2.07-2V5.82a2,2,0,0,1,2-1.89h6.43a1.9,1.9,0,0,1,1.9,1.88Z" style="fill:#005172"/><path d="M196.8,5.82H189V8h6.2V9.92H189v2.4h7.76V14.2h-9.65V3.94h9.65Z" style="fill:#005172"/><path d="M210.76,3.94h1.9V14.2h-2.08l-6.37-7.52V14.2h-1.9V3.94h2.06l6.38,7.52Z" style="fill:#005172"/><path d="M86.35,8.73l1-2.91h3.44l1,2.91Zm6.37-2.91c-.51-1.2-1-1.88-2.06-1.88h-3.1c-1.21,0-1.56.68-2.07,1.88L82.56,14.2h1.9l1.37-3.59h6.55l1.38,3.59h1.9Z" style="fill:#005172"/><path d="M70.15,22.24H71v5a.91.91,0,0,1-.77,1H66a1,1,0,0,1-1-.94V22.24h.86v5a.16.16,0,0,0,.17.17h4c.18,0,.18,0,.18-.17Z" style="fill:#34b233"/><path d="M78.6,22.24h.86v6h-1l-4.13-4.79v4.79h-.86v-6h1L78.6,27Z" style="fill:#34b233"/><rect x="81.69" y="22.24" width="1.03" height="5.99" style="fill:#34b233"/><path d="M90.66,22.24h1l-3.45,6h-1l-3.45-6h1l2.93,5Z" style="fill:#34b233"/><path d="M98.07,23.1H93.41v1.71h3.8v.85h-3.8v1.72h4.66v.85H92.55v-6h5.52Z" style="fill:#34b233"/><path d="M101.34,23.1v2l4,.17c.17,0,.17-.17.17-.34V23.27a.16.16,0,0,0-.16-.17h-4ZM106.51,25a1.18,1.18,0,0,1-1.15,1.2h-.58l1.73,2.05H105.3l-1.72-2.05h-2.24v2.05h-1v-6h5a1.14,1.14,0,0,1,1.21,1Z" style="fill:#34b233"/><path d="M151.14,23.1v2l4.13.17a.57.57,0,0,0,.18-.34V23.27l-.18-.17ZM156.31,25a1.15,1.15,0,0,1-1,1.2h-.69l1.73,2.05h-1l-1.9-2.05h-2.24v2.05h-.86v-6h5a1.1,1.1,0,0,1,1,1Z" style="fill:#34b233"/><path d="M191.11,23.1v2l4.14.17c.17,0,.17-.17.17-.34V23.27a.16.16,0,0,0-.16-.17h-4.15ZM196.45,25a1.17,1.17,0,0,1-1.14,1.2h-.58l1.72,2.05h-1.2l-1.72-2.05h-2.41v2.05h-.86v-6h5a1.15,1.15,0,0,1,1.2,1Z" style="fill:#34b233"/><path d="M114.78,23.61h-.86v-.34l-.18-.17h-4a.16.16,0,0,0-.17.16h0v1.37c0,.17,0,.17.17.17h4a1.1,1.1,0,0,1,1,1V27.2a1,1,0,0,1-1,1h-4a.91.91,0,0,1-1-.77,1.13,1.13,0,0,1,0-.26v-.34h.86v.34c0,.18,0,.18.17.18h4a.18.18,0,0,0,.18-.17h0V25.84l-.18-.18h-4a.9.9,0,0,1-1-.76,1.13,1.13,0,0,1,0-.26V23.27a1,1,0,0,1,1-1h4a1.12,1.12,0,0,1,1,1Z" style="fill:#34b233"/><rect x="117.02" y="22.24" width="0.86" height="5.99" style="fill:#34b233"/><path d="M125.64,22.24v.86h-2.59v5.13h-1V23.09h-2.58v-.85Z" style="fill:#34b233"/><path d="M132.7,22.24,129.94,26v2.22h-.86V26l-2.93-3.76h1.2L129.42,25l2.24-2.74Z" style="fill:#34b233"/><path d="M164.23,23.1h-4.65v1.71h3.79v.85h-3.79v1.72h4.65v.85h-5.68v-6h5.68Z" style="fill:#34b233"/><path d="M172.16,23.61h-.86v-.34l-.18-.17h-4l-.17.17v1.37a.17.17,0,0,0,.16.17h4a1.1,1.1,0,0,1,1,1V27.2a1,1,0,0,1-.95,1h-4.05a1,1,0,0,1-1-.95v-.42H167v.34a.17.17,0,0,0,.16.17h4a.18.18,0,0,0,.17-.17h0V25.84l-.17-.18h-4a1,1,0,0,1-1-.95V23.27a1.12,1.12,0,0,1,1-1h4a1.12,1.12,0,0,1,1,1Z" style="fill:#34b233"/><path d="M180.09,23.1h-4.66v1.71h3.79v.85h-3.79v1.72h4.66v.85H174.4v-6h5.69Z" style="fill:#34b233"/><path d="M187,25.32l-.86-2.05a.18.18,0,0,0-.17-.17h-1.73a.16.16,0,0,0-.17.16h0l-.87,2.05Zm-1-3.08a1.28,1.28,0,0,1,1.2,1l1.73,5H188l-.87-2.05h-4.3l-.69,2.05h-.86l1.72-5c.35-.69.52-1,1.21-1Z" style="fill:#34b233"/><path d="M199.56,23.1a.16.16,0,0,0-.18.16h0V27.2c0,.17,0,.17.18.17h5v.86h-5a.92.92,0,0,1-1-.77,1.13,1.13,0,0,1,0-.26V23.27a1,1,0,0,1,.95-1h5.09v.85Z" style="fill:#34b233"/><path d="M212.65,22.24v6h-1V25.66h-4.31v2.57h-1v-6h1V24.8h4.31V22.24Z" style="fill:#34b233"/><path d="M142.69,27.2a.16.16,0,0,1-.16.17h-4c-.18,0-.18,0-.18-.17V25.32l.18-.17h1.2L142.69,27Zm1.9.17-1-.68V25h-.86v1.2l-3.45-2.05v-.86a.17.17,0,0,1,.17-.17h2.24l.18.17v.52h.86V23.1a1,1,0,0,0-1-.85h-2.24a1.14,1.14,0,0,0-1.2,1V24c0,.34.17.51.52.68h-.17c-.7,0-1,.17-1,.86v1.71c0,.68.34,1.2,1,1.2h4a1.27,1.27,0,0,0,1-.86l1,.86Z" style="fill:#34b233"/><path d="M58.26,28.4c.69-.51-1.21-1.2-1.21-1.2S55,26.35,46.72,25.66V28.4H34.14V25.15H23.28V28.4H10.7V25.66a81.91,81.91,0,0,0-9,1l-.69.51c-.68.51,0,.69.52.86.17.17.17.17,0,.34,0,.17-.34.17-.34.51.17.52.86,0,.86.69,0,.85-1.9.34-2.07,1s.69.17.69,1.2c0,1.2.86,2.4,3.27,2.91.52.17,3.1.17,1.73.86-.17.17-.69.17-.86.17s-.87,0-1,.17c-.17.34.35.34.17.68-.17.17-.86,0-.68.69a1.89,1.89,0,0,0,1,.34,5,5,0,0,1,1.72,0c-.86.17-1.55,1,1.55,1,0,.51.87.34,1.21.34,19.13-4.28,27.57-2.4,27.57-3.59-.17-.69-2.93-.52-3.45-.52-1.72-.17-5.51,0-5.34-.34.17-1,19.64-.85,17.4-.17-.17,0-1.55.17-1.55.34-1.21.51,2.93.69,3.27.69.52,0,1.73,0,1.55.51,0,.17-1.55,0-1.55.17.18.17,1,.17,1,.34.51.86-7.24.34-11.2.51a42.78,42.78,0,0,0-4.66.35c-2.06.17-.34.68,2.76,1,1.72.17,10.51.86,17.92,1.71,2.24.52,2.76-.68,2.41-.85s.87-.86-.51-1.37c-.86-.34-.18-.51-.18-.51.18,0,1.9.34,1.38-.17-.51-.35.18-.17.35-.17,1.72-.18,1.2-.69,1.38-.69-.52-.34.86-.68.51-1.88-.17-.17-1.9-.17-.69-.51.18,0,1.9,0,.18-.86a10.37,10.37,0,0,0-1.21-.34c-1.21-.34-.34-.85.34-.68.69,0,1.38-.35,1.21-1.2S57.4,28.57,58.26,28.4Z" style="fill:#005172"/><path d="M12.59,0V28.4H23.28V10.78H34.13V28.4H44.82V0Z" style="fill:#34b233"/></svg>