<svg xmlns="http://www.w3.org/2000/svg" viewBox="0 0 176.23 76.06"><path d="M47.36,48.62c.45-.13.68-.35.72-.71l.53-6.16-.7-.21v-.35a12.78,12.78,0,0,1,1.64-.08H50L51.87,47h0l1.83-5.85h.52a10.29,10.29,0,0,1,1.46.08v.35l-.75.18.53,6.64.7.13v.26A2.75,2.75,0,0,1,55,49a5.4,5.4,0,0,1-1.33-.12V48.6a.82.82,0,0,0,.72-.9v0l-.3-5.47h0L51.93,48.9l-.47.06-2.17-6.74h0l-.37,6.05.79.2v.27a3.87,3.87,0,0,1-1.39.2,4.94,4.94,0,0,1-.93-.12Z" style="fill:#1a1718"/><path d="M57.09,48.63c.32-.12.64-.36.64-.65V43.91L57,43.58v-.25a5.41,5.41,0,0,1,1.44-.23h.39l-.06.65v4.58l.67.18v.23a4.31,4.31,0,0,1-2.3.1Zm.5-7.33a.68.68,0,0,1,.66-.71h0a.63.63,0,0,1,.63.61v0a.71.71,0,0,1-.65.75h0a.66.66,0,0,1-.64-.66v0Z" style="fill:#1a1718"/><path d="M60.37,48.64c.31-.12.64-.37.64-.65V43.91l-.79-.33v-.26a5.92,5.92,0,0,1,1.45-.22H62v.65a2.6,2.6,0,0,1,1.78-.67,1.64,1.64,0,0,1,1.71,1.58,1.51,1.51,0,0,1,0,.3v3.37l.63.19v.23a3.67,3.67,0,0,1-1.27.2,2.3,2.3,0,0,1-.78-.11v-.2a.73.73,0,0,0,.43-.8v-2.3c0-1.18-.49-1.63-1.2-1.63a2.16,2.16,0,0,0-1.24.38v4.05l.67.18v.23a4.14,4.14,0,0,1-1.4.21,3.89,3.89,0,0,1-.9-.11Z" style="fill:#1a1718"/><path d="M67,48.63c.32-.12.64-.36.64-.65V43.91l-.77-.33v-.25a5.28,5.28,0,0,1,1.43-.23h.39l-.06.65v4.58l.67.18v.23a4.31,4.31,0,0,1-2.3.1Zm.5-7.33a.68.68,0,0,1,.66-.71h0a.63.63,0,0,1,.63.61v0a.71.71,0,0,1-.65.75h0a.66.66,0,0,1-.64-.66v0Z" style="fill:#1a1718"/><path d="M70.21,47.53a2.34,2.34,0,0,0,1.69.76c.68,0,1-.32,1-.74s-.24-.69-1-1l-.6-.25a1.58,1.58,0,0,1-1.08-1.5,1.91,1.91,0,0,1,2-1.77h.06c1,0,1.35.29,1.35.75a2.22,2.22,0,0,1-.06.51,2.62,2.62,0,0,0-1.38-.46c-.77,0-1.13.34-1.13.75s.22.67.94,1l.65.25c.87.34,1.2.78,1.2,1.5A2,2,0,0,1,71.65,49h0c-1.06,0-1.53-.34-1.53-1A1.1,1.1,0,0,1,70.21,47.53Z" style="fill:#1a1718"/><path d="M75.26,45.55l0-1.6h-.66v-.4l1.3-1.29.4,0,0,1.08h1.59l-.08.65H76.25l0,1.52c0,.51,0,1,0,1.41,0,1,.29,1.32.74,1.32a1.39,1.39,0,0,0,.89-.32l.12.05c0,.71-.47,1.07-1.3,1.07s-1.44-.5-1.44-1.67C75.22,46.74,75.25,46.1,75.26,45.55Z" style="fill:#1a1718"/><path d="M80.89,43A2,2,0,0,1,83,44.94a1.83,1.83,0,0,1,0,.33c0,.23,0,.47,0,.77H79.4c0,1.35.79,2.13,1.79,2.13a3.13,3.13,0,0,0,1.7-.51,1.06,1.06,0,0,1,0,.31c0,.54-.8,1.05-2.08,1.05a2.55,2.55,0,0,1-2.51-2.58c0-.06,0-.12,0-.18C78.37,44.16,79.63,43,80.89,43ZM82,45.41c0-1.18-.51-1.74-1.22-1.74a1.66,1.66,0,0,0-1.36,1.74Z" style="fill:#1a1718"/><path d="M83.94,48.63c.31-.12.64-.36.64-.65V43.91l-.79-.33v-.26a5.48,5.48,0,0,1,1.45-.22h.29v.84h0l.34-.37A1.39,1.39,0,0,1,86.94,43c.42,0,.63.18.63.52a1.65,1.65,0,0,1-.2.72,1.25,1.25,0,0,0-.74-.28,1.52,1.52,0,0,0-1.06.5v3.83l.83.18v.23a4.26,4.26,0,0,1-1.5.21,3.53,3.53,0,0,1-1-.11Z" style="fill:#1a1718"/><path d="M88,48.63c.32-.12.64-.36.64-.65V43.91l-.77-.33v-.25a5.34,5.34,0,0,1,1.43-.23h.39l-.06.65v4.58l.67.18v.23a3.9,3.9,0,0,1-1.4.21,4,4,0,0,1-.9-.11Zm.51-7.33a.68.68,0,0,1,.65-.71h0a.62.62,0,0,1,.63.61v0a.7.7,0,0,1-.65.75h0a.65.65,0,0,1-.63-.66v0Z" style="fill:#1a1718"/><path d="M93.68,43a2,2,0,0,1,2.1,1.93,1.82,1.82,0,0,1,0,.33c0,.23,0,.47,0,.77H92.2c0,1.35.78,2.13,1.78,2.13a3.09,3.09,0,0,0,1.7-.51.81.81,0,0,1,0,.31c0,.54-.8,1.05-2.07,1.05a2.54,2.54,0,0,1-2.51-2.58,1.09,1.09,0,0,1,0-.18C91.16,44.16,92.43,43,93.68,43Zm1.12,2.4c0-1.18-.5-1.74-1.21-1.74a1.66,1.66,0,0,0-1.37,1.74Z" style="fill:#1a1718"/><path d="M98.78,43.74l-.49-.35V43.1h2.3v.29l-.69.29,1.3,3.82h0l1.34-3.79-.69-.32V43.1h1.86v.29l-.34.28L101.24,49l-.41,0Z" style="fill:#1a1718"/><path d="M107.05,45.71v-.32c0-1.3-.31-1.58-1.07-1.58a2.59,2.59,0,0,0-1.81.78,1.46,1.46,0,0,1,0-.36c0-.77.56-1.22,2-1.22,1.22,0,1.94.62,1.94,1.62,0,.26,0,.87,0,1.22l0,1.95a1.59,1.59,0,0,0,.48.61,2.62,2.62,0,0,1-.82.62,1.64,1.64,0,0,1-.55-.59,2.56,2.56,0,0,1-1.63.58,1.38,1.38,0,0,1-1.52-1.24.38.38,0,0,1,0-.1C103.92,46.62,105.08,45.71,107.05,45.71Zm-1.15,2.58a2.45,2.45,0,0,0,1.15-.32V46.28c-1.36,0-2.1.57-2.1,1.22,0,.48.33.79,1,.79Z" style="fill:#1a1718"/><path d="M109.49,48.64c.31-.12.64-.37.64-.65V43.91l-.79-.33v-.26a5.92,5.92,0,0,1,1.45-.22h.29v.65a2.6,2.6,0,0,1,1.78-.67,1.64,1.64,0,0,1,1.71,1.58,1.51,1.51,0,0,1,0,.3v3.37l.63.19v.23a3.67,3.67,0,0,1-1.27.2,2.3,2.3,0,0,1-.78-.11v-.2a.73.73,0,0,0,.43-.8v-2.3c0-1.18-.49-1.63-1.2-1.63a2.19,2.19,0,0,0-1.24.38v4.05l.67.18v.23a4.14,4.14,0,0,1-1.4.21,4,4,0,0,1-.9-.11Z" style="fill:#1a1718"/><path d="M118.5,48.56a.8.8,0,0,0,.7-.85h0v-6l-.76-.2v-.26a5.66,5.66,0,0,1,1.36-.2,4.5,4.5,0,0,1,1.15.12v.23c-.52.17-.7.39-.7.88v5.8h1.35a1.29,1.29,0,0,0,1.31-.66l.13-.28h.3l-.27,1.65H118.5Z" style="fill:#1a1718"/><path d="M126.88,45.71v-.32c0-1.3-.32-1.58-1.08-1.58a2.59,2.59,0,0,0-1.81.78,2.19,2.19,0,0,1,0-.36c0-.77.56-1.22,2-1.22,1.22,0,1.95.62,1.95,1.62,0,.26,0,.87,0,1.22l0,1.95a1.59,1.59,0,0,0,.48.61,2.62,2.62,0,0,1-.82.62,1.64,1.64,0,0,1-.55-.59,2.54,2.54,0,0,1-1.63.58,1.39,1.39,0,0,1-1.52-1.24.38.38,0,0,1,0-.1C123.74,46.62,124.9,45.71,126.88,45.71Zm-1.16,2.58a2.49,2.49,0,0,0,1.16-.32V46.28c-1.37,0-2.1.57-2.1,1.22,0,.48.33.79.94.79Z" style="fill:#1a1718"/><path d="M129.31,48.64c.31-.12.64-.37.64-.65V43.91l-.78-.33v-.26a5.84,5.84,0,0,1,1.44-.22h.29v.65a2.62,2.62,0,0,1,1.79-.67c1,0,1.68.64,1.68,1.88v3.37l.63.19v.23a3.58,3.58,0,0,1-1.26.2,2.32,2.32,0,0,1-.79-.11v-.2a.75.75,0,0,0,.44-.8v-2.3c0-1.18-.5-1.63-1.21-1.63a2.21,2.21,0,0,0-1.24.38v4.05l.67.18v.23a4.14,4.14,0,0,1-1.4.21,4,4,0,0,1-.9-.11Z" style="fill:#1a1718"/><path d="M138.72,43a3.34,3.34,0,0,1,.83.08V41l-.82-.33V40.4a5.77,5.77,0,0,1,1.49-.22h.39l-.08.68v6.9a1.75,1.75,0,0,0,.46.7,3.66,3.66,0,0,1-.84.57,2.25,2.25,0,0,1-.58-.72A2.35,2.35,0,0,1,138,49a2.32,2.32,0,0,1-2.21-2.45s0-.11,0-.16C135.83,44.21,137.15,43,138.72,43Zm.84,4.8v-4a2.94,2.94,0,0,0-.88-.14c-1,0-1.8.81-1.8,2.49,0,1.31.69,2,1.44,2a2,2,0,0,0,1.24-.39Z" style="fill:#1a1718"/><path d="M142.67,47.61V41l-.8-.33V40.4a5.48,5.48,0,0,1,1.45-.22h.41l-.07.68v2.72a2.38,2.38,0,0,1,1.52-.55,2.24,2.24,0,0,1,2.2,2.28,2.46,2.46,0,0,1,0,.26A3.09,3.09,0,0,1,144.6,49a1.83,1.83,0,0,1-.33,0,9.94,9.94,0,0,1-1.72-.18A7.87,7.87,0,0,0,142.67,47.61Zm1.62.68c1.12,0,2-.73,2-2.5,0-1.26-.71-2-1.53-2a2.18,2.18,0,0,0-1.14.29v4.07a2.32,2.32,0,0,0,.64.11Z" style="fill:#1a1718"/><path d="M151.13,43a2.6,2.6,0,0,1,2.63,2.58,1.47,1.47,0,0,1,0,.21A3,3,0,0,1,151,49h-.06a2.58,2.58,0,0,1-2.65-2.52,2.44,2.44,0,0,1,0-.27A3,3,0,0,1,151,43ZM151,48.33c.81,0,1.65-.78,1.65-2.44,0-1.41-.76-2.19-1.61-2.19s-1.66.83-1.66,2.43c0,1.45.77,2.2,1.62,2.2Z" style="fill:#1a1718"/><path d="M155.33,43.91l-.69-.34v-.25a4.84,4.84,0,0,1,1.35-.23h.4l-.07.67v2.72c0,1.27.4,1.68,1.17,1.68a2.32,2.32,0,0,0,1.18-.35v-3.9l-.7-.34v-.26a5.3,5.3,0,0,1,1.37-.22h.4l-.08.67v4.07a2.22,2.22,0,0,0,.46.63,3.35,3.35,0,0,1-.82.57,1.59,1.59,0,0,1-.56-.7A2.77,2.77,0,0,1,157,49c-1,0-1.66-.59-1.66-2Z" style="fill:#1a1718"/><path d="M160.93,43.75l-.52-.36V43.1h2.34v.29l-.7.29,1.07,3.87h0l1.19-3.85-.66-.31V43.1h2.05v.29l-.35.26,1.09,3.89h0l1.24-3.83-.69-.32V43.1h1.86v.29l-.32.26-2,5.33L166,49l-1.33-4.44h0L163.28,49l-.55,0Z" style="fill:#1a1718"/><path d="M169.58,47.52a.64.64,0,0,1,.66.62.15.15,0,0,1,0,.07,2.54,2.54,0,0,1-1.42,2.22l-.32-.09a2.36,2.36,0,0,0,.74-1.76l-.42-.53A1.09,1.09,0,0,1,169.58,47.52Z" style="fill:#1a1718"/><path d="M47.72,62.24c.53-.15.7-.41.7-1.06v-5.8l-.76-.21v-.35A11.69,11.69,0,0,1,49,54.74h.45l3.35,5.51h0v-4.9L52,55.15v-.26a4.43,4.43,0,0,1,1.2-.2,2.87,2.87,0,0,1,1,.14V55c-.53.17-.68.39-.68,1.14v6.31l-.57.14-3.81-6.28h0v5.57l.73.19v.27a3.15,3.15,0,0,1-1.1.2,4.08,4.08,0,0,1-1.1-.12Z" style="fill:#1a1718"/><path d="M58.09,59.34V59c0-1.3-.32-1.58-1.08-1.58a2.55,2.55,0,0,0-1.8.78,1.42,1.42,0,0,1,0-.36c0-.77.57-1.22,2-1.22,1.21,0,1.94.62,1.94,1.62,0,.27,0,.87-.05,1.22l0,2a1.56,1.56,0,0,0,.49.62,2.88,2.88,0,0,1-.82.61,1.58,1.58,0,0,1-.56-.59,2.49,2.49,0,0,1-1.63.58A1.39,1.39,0,0,1,55,61.41s0-.07,0-.1C55,60.25,56.11,59.34,58.09,59.34Zm-1.16,2.59a2.63,2.63,0,0,0,1.16-.33V59.91c-1.37,0-2.1.57-2.1,1.22C56,61.61,56.32,61.93,56.93,61.93Z" style="fill:#1a1718"/><path d="M61,59.18l0-1.6h-.66v-.4l1.3-1.29.4,0,0,1.08h1.59l-.09.65H62l0,1.52c0,.51,0,1,0,1.41,0,1,.28,1.32.73,1.32a1.39,1.39,0,0,0,.89-.32l.12,0c0,.71-.47,1.08-1.3,1.08S61,62.12,61,61C61,60.37,61,59.73,61,59.18Z" style="fill:#1a1718"/><path d="M64.78,57.54l-.69-.34V57a4.78,4.78,0,0,1,1.35-.23h.4l-.07.67v2.73c0,1.26.4,1.67,1.17,1.67a2.23,2.23,0,0,0,1.18-.35v-3.9l-.7-.34V57a4.86,4.86,0,0,1,1.37-.23h.4l-.08.67v4.08a2.33,2.33,0,0,0,.46.62,2.88,2.88,0,0,1-.82.57,1.63,1.63,0,0,1-.57-.7,2.74,2.74,0,0,1-1.73.64c-1,0-1.67-.59-1.67-2Z" style="fill:#1a1718"/><path d="M71.18,57.54l-.69-.34V57a4.85,4.85,0,0,1,1.36-.23h.4l-.08.67v2.73c0,1.26.4,1.67,1.17,1.67a2.23,2.23,0,0,0,1.18-.35v-3.9l-.7-.34V57a4.92,4.92,0,0,1,1.37-.23h.4l-.08.67v4.08a2.33,2.33,0,0,0,.46.62,2.88,2.88,0,0,1-.82.57,1.63,1.63,0,0,1-.57-.7,2.74,2.74,0,0,1-1.73.64c-1,0-1.66-.59-1.66-2Z" style="fill:#1a1718"/><path d="M77.07,62.26c.31-.12.63-.36.63-.65V57.54l-.78-.33v-.27a5.91,5.91,0,0,1,1.45-.21h.29v.84h0L79,57.2a1.36,1.36,0,0,1,1.06-.53c.42,0,.62.18.62.52a1.52,1.52,0,0,1-.19.72,1.26,1.26,0,0,0-.75-.28,1.56,1.56,0,0,0-1.06.5V62l.84.18v.23a4.06,4.06,0,0,1-1.5.2,3.52,3.52,0,0,1-1-.1Z" style="fill:#1a1718"/><path d="M85.89,56.64A2,2,0,0,1,88,58.57a1.82,1.82,0,0,1,0,.33c0,.23,0,.47,0,.77H84.41c0,1.35.78,2.14,1.79,2.14a3.23,3.23,0,0,0,1.7-.52,1.06,1.06,0,0,1,0,.31c0,.54-.8,1-2.07,1a2.55,2.55,0,0,1-2.51-2.58,1.09,1.09,0,0,1,0-.18C83.37,57.79,84.64,56.64,85.89,56.64ZM87,59.05c0-1.19-.5-1.75-1.21-1.75a1.68,1.68,0,0,0-1.37,1.75Z" style="fill:#1a1718"/><path d="M88.94,62.26c.32-.12.64-.36.64-.65V57.54l-.78-.33V57a5.48,5.48,0,0,1,1.45-.22h.29v.65a2.54,2.54,0,0,1,1.78-.68A1.64,1.64,0,0,1,94,58.28a1.48,1.48,0,0,1,0,.3V62l.63.18v.23a3.45,3.45,0,0,1-1.27.2,2.27,2.27,0,0,1-.78-.11v-.2a.74.74,0,0,0,.43-.8v-2.3c0-1.18-.49-1.63-1.21-1.63a2.21,2.21,0,0,0-1.24.38V62l.68.18v.23a3.93,3.93,0,0,1-1.4.2,3.36,3.36,0,0,1-.9-.11Z" style="fill:#1a1718"/><path d="M98,55.37l-.65-.2v-.26a3.71,3.71,0,0,1,1.19-.19,4.55,4.55,0,0,1,1.11.11v.23a.52.52,0,0,0-.42.61.78.78,0,0,0,0,.14l1.45,4.94h0l1.56-5.37-.76-.2v-.26a4.82,4.82,0,0,1,1.3-.2,2.81,2.81,0,0,1,.82.12v.23a1.13,1.13,0,0,0-.68.83l-2.14,6.65-.48,0Z" style="fill:#1a1718"/><path d="M106.45,56.63a2.61,2.61,0,0,1,2.63,2.59v.2a3,3,0,0,1-2.76,3.24h-.06a2.58,2.58,0,0,1-2.65-2.52,2.17,2.17,0,0,1,0-.26,3,3,0,0,1,2.74-3.24ZM106.33,62c.81,0,1.65-.78,1.65-2.43,0-1.41-.76-2.2-1.61-2.2s-1.66.83-1.66,2.43.76,2.2,1.62,2.2Z" style="fill:#1a1718"/><path d="M112.54,56.64a2,2,0,0,1,2.1,1.93c0,.11,0,.22,0,.33s0,.47,0,.77h-3.55c0,1.35.78,2.14,1.78,2.14a3.18,3.18,0,0,0,1.7-.52,1.06,1.06,0,0,1,0,.31c0,.54-.8,1-2.07,1A2.54,2.54,0,0,1,110,60.07a1.09,1.09,0,0,1,0-.18C110,57.79,111.29,56.64,112.54,56.64Zm1.12,2.41c0-1.19-.5-1.75-1.22-1.75a1.67,1.67,0,0,0-1.36,1.75Z" style="fill:#1a1718"/><path d="M118.36,56.66a4,4,0,0,1,.84.08V54.62l-.82-.33V54a5.77,5.77,0,0,1,1.49-.22h.39l-.07.68V61.4a1.69,1.69,0,0,0,.45.7,4,4,0,0,1-.84.56,2.15,2.15,0,0,1-.58-.72,2.41,2.41,0,0,1-1.54.69,2.34,2.34,0,0,1-2.21-2.46c0-.05,0-.11,0-.16C115.49,57.84,116.8,56.66,118.36,56.66Zm.85,4.8v-4a2.94,2.94,0,0,0-.88-.14c-1,0-1.8.81-1.8,2.49,0,1.31.68,2,1.44,2a2,2,0,0,0,1.24-.39Z" style="fill:#1a1718"/><path d="M121.67,61.17a2.42,2.42,0,0,0,1.7.76c.67,0,1-.33,1-.75s-.24-.69-1-1l-.6-.25a1.58,1.58,0,0,1-1.09-1.49,1.92,1.92,0,0,1,2-1.78h.06c1,0,1.35.29,1.35.75a2.22,2.22,0,0,1-.06.51,2.58,2.58,0,0,0-1.37-.46c-.77,0-1.14.34-1.14.75s.22.67.94,1l.66.25c.86.34,1.19.79,1.19,1.5a2,2,0,0,1-2.23,1.78h0c-1.06,0-1.53-.33-1.53-1A1,1,0,0,1,121.67,61.17Z" style="fill:#1a1718"/><path d="M128.61,56.64a2,2,0,0,1,2.1,1.93,1.82,1.82,0,0,1,0,.33c0,.23,0,.47,0,.77h-3.56c0,1.35.78,2.14,1.78,2.14a3.18,3.18,0,0,0,1.7-.52.81.81,0,0,1,0,.31c0,.54-.8,1-2.07,1a2.54,2.54,0,0,1-2.51-2.58,1.09,1.09,0,0,1,0-.18C126.09,57.79,127.36,56.64,128.61,56.64Zm1.12,2.41c0-1.19-.5-1.75-1.22-1.75a1.67,1.67,0,0,0-1.36,1.75Z" style="fill:#1a1718"/><path d="M131.66,62.26c.32-.12.64-.36.64-.65v-7l-.78-.33V54a5.48,5.48,0,0,1,1.45-.22h.38l-.06.68V62l.68.18v.23a3.93,3.93,0,0,1-1.4.2,3,3,0,0,1-.9-.11Z" style="fill:#1a1718"/><path d="M134.88,62.26c.33-.12.65-.36.65-.65v-7l-.8-.33V54a5.54,5.54,0,0,1,1.45-.22h.41l-.07.68v4.82l.66-.58a3.3,3.3,0,0,0,1.24-1.93,2,2,0,0,1,.64-.1,1.21,1.21,0,0,1,.49.11,3.43,3.43,0,0,1-1.64,2.12l-.43.3,1.86,2.26a1.3,1.3,0,0,0,.89.58v.25a1.4,1.4,0,0,1-.89.25,1,1,0,0,1-.86-.45l-2-2.6V62l.63.19v.23a4,4,0,0,1-1.37.19,3.45,3.45,0,0,1-.9-.1Z" style="fill:#1a1718"/><path d="M140.28,57.38l-.51-.36v-.29h2.33V57l-.69.29,1.07,3.87h0l1.19-3.85L143,57v-.29h2V57l-.35.26,1.09,3.89h0l1.24-3.83-.69-.32v-.29h1.86V57l-.33.26-2,5.33-.51,0L144,58.2h0l-1.39,4.41-.54,0Z" style="fill:#1a1718"/><path d="M151.59,59.34V59c0-1.3-.32-1.58-1.08-1.58a2.59,2.59,0,0,0-1.81.78,2.1,2.1,0,0,1,0-.36c0-.77.57-1.22,2-1.22,1.21,0,1.94.62,1.94,1.62,0,.27,0,.87-.05,1.22l0,2a1.62,1.62,0,0,0,.48.62,2.83,2.83,0,0,1-.81.61,1.58,1.58,0,0,1-.56-.59,2.49,2.49,0,0,1-1.63.58,1.39,1.39,0,0,1-1.52-1.24.34.34,0,0,1,0-.1C148.45,60.25,149.6,59.34,151.59,59.34Zm-1.16,2.59a2.63,2.63,0,0,0,1.16-.33V59.91c-1.37,0-2.1.57-2.1,1.22,0,.48.32.8.93.8Z" style="fill:#1a1718"/><path d="M154,62.26c.31-.12.64-.36.64-.65v-7l-.79-.33V54a5.48,5.48,0,0,1,1.45-.22h.39l-.06.68V62l.67.18v.23a3.9,3.9,0,0,1-1.4.2,3,3,0,0,1-.9-.11Z" style="fill:#1a1718"/><path d="M157.25,62.26c.32-.12.64-.36.64-.65V57.54l-.77-.33V57a5.76,5.76,0,0,1,1.43-.22h.39l-.06.65V62l.67.18v.23a3.9,3.9,0,0,1-1.4.2,3.45,3.45,0,0,1-.9-.1Zm.51-7.33a.68.68,0,0,1,.65-.71h0a.62.62,0,0,1,.63.61v0a.7.7,0,0,1-.65.75h0a.65.65,0,0,1-.63-.66v0Z" style="fill:#1a1718"/><path d="M161,59.18l0-1.6h-.66v-.4l1.3-1.29.4,0-.05,1.08h1.59l-.08.65H162l0,1.52c0,.51,0,1,0,1.41,0,1,.29,1.32.73,1.32a1.42,1.42,0,0,0,.9-.32l.12,0c-.05.71-.47,1.08-1.3,1.08S161,62.12,161,61C161,60.37,161,59.73,161,59.18Z" style="fill:#1a1718"/><path d="M166.68,56.64a2,2,0,0,1,2.1,1.93,1.83,1.83,0,0,1,0,.33c0,.23,0,.47,0,.77H165.2c0,1.35.78,2.14,1.78,2.14a3.23,3.23,0,0,0,1.7-.52,1.06,1.06,0,0,1,0,.31c0,.54-.8,1-2.08,1a2.55,2.55,0,0,1-2.51-2.58,1.09,1.09,0,0,0,0-.18C164.16,57.79,165.42,56.64,166.68,56.64Zm1.12,2.41c0-1.19-.51-1.75-1.22-1.75a1.67,1.67,0,0,0-1.36,1.75Z" style="fill:#1a1718"/><path d="M169.73,62.26c.32-.12.64-.36.64-.65V57.54l-.77-.33V57a5.69,5.69,0,0,1,1.43-.22h.39l-.06.65V62l.67.18v.23a3.9,3.9,0,0,1-1.4.2,3.41,3.41,0,0,1-.9-.1Zm.51-7.33a.67.67,0,0,1,.65-.71h0a.62.62,0,0,1,.63.61v0a.7.7,0,0,1-.65.75h0a.66.66,0,0,1-.64-.66v0Z" style="fill:#1a1718"/><path d="M173.53,59.18l0-1.6h-.67v-.4l1.3-1.29.4,0,0,1.08h1.6l-.09.65h-1.54l0,1.52c0,.51,0,1,0,1.41,0,1,.29,1.32.74,1.32a1.39,1.39,0,0,0,.89-.32l.12,0c0,.71-.47,1.08-1.3,1.08s-1.44-.51-1.44-1.68C173.49,60.37,173.52,59.73,173.53,59.18Z" style="fill:#1a1718"/><rect width="38.64" height="76.06" style="fill:#183660"/><path d="M20,58.51h-.67V56.65H20Zm3-8.21h-.67V48.44H23ZM10.58,47.09c-.05,0-.4,0-.4.07s.16,0,.4.08c.54.09.75.36,1.12.36a.55.55,0,0,0,.6-.48.64.64,0,0,0,0-.24c0-.09-.07-.07-.08,0a.61.61,0,0,1-.61.35A9,9,0,0,0,10.58,47.09ZM6.88,49c.06.08.69.9-.28,1.22,0,0-.06.06,0,.08A.83.83,0,0,0,7.67,50a1.09,1.09,0,0,1-.19,1.29,1.52,1.52,0,0,0,.94.51A1.19,1.19,0,0,0,9,51.18a1.08,1.08,0,0,1,0,.71c1.47.13,2-1,3.12-.83,0,0,0,0,0-.05a2.34,2.34,0,0,0-1.84-2.31c-1.4-.27-1-.85-1-.85a1.61,1.61,0,0,1,.93.23.36.36,0,0,0,0-.37.75.75,0,0,0,.09-.3,1.54,1.54,0,0,1-.84-.14c-.1-.39.17-1,1.16-.35a.79.79,0,0,0,.23-.56.25.25,0,0,0,.12-.2c0-.16-.79-.59-1-.65-.05-.24-.36-.59-1.28-.46-.44.06-.75-.06-.61-.31,0-.05-.05-.06-.09,0s-.25.38.14.58a.85.85,0,0,1,.46.7c0,.09-.1.1-.13,0a1.17,1.17,0,0,0-1.54-.61h0a.94.94,0,0,0-.22.12.77.77,0,0,0,.67.64.34.34,0,0,0,.32-.31c0-.09,0-.07.07,0a.53.53,0,0,1-.47.58.58.58,0,0,1-.38-.11,1.5,1.5,0,0,0-.28,1.53c.1.47-.13.92-.55.71,0,0,0,0,0,0a.52.52,0,0,0,.59.46A.5.5,0,0,0,6.88,49ZM10,46.07c-.27.29-.7.22-.81-.27.55,0,.79,0,.81.27Zm17,1.14a.6.6,0,0,1-.61-.35s-.05-.07-.08,0a.53.53,0,0,0,.31.69h0a.52.52,0,0,0,.25,0c.38,0,.59-.27,1.13-.36.23,0,.4,0,.4-.08s-.35-.08-.4-.08c-.56,0-.64.13-1,.13Zm5.53,1.37s0,0,0,0c-.43.22-.65-.24-.55-.7a1.52,1.52,0,0,0-.28-1.54.53.53,0,0,1-.74-.08.58.58,0,0,1-.11-.38c0-.07.07-.08.07,0a.33.33,0,0,0,.31.31.77.77,0,0,0,.68-.64,1.17,1.17,0,0,0-1.63.28h0a1.59,1.59,0,0,0-.13.22c0,.09-.13.08-.12,0a.8.8,0,0,1,.45-.7c.38-.19.24-.48.14-.58s-.12,0-.09,0c.14.25-.17.37-.61.31-.93-.12-1.23.22-1.28.46-.2,0-1,.49-1,.66a.28.28,0,0,0,.12.2.71.71,0,0,0,.23.55c1-.59,1.25,0,1.15.35,0,0-.17.15-.83.15a1.11,1.11,0,0,0,.08.3.34.34,0,0,0,0,.36,1.59,1.59,0,0,1,.93-.23s.37.58-1,.85A2.34,2.34,0,0,0,26.44,51s0,.06,0,0c1.13-.21,1.65,1,3.12.83a1.12,1.12,0,0,1,0-.7,1.36,1.36,0,0,0,.59.62,1.61,1.61,0,0,0,.95-.52A1.06,1.06,0,0,1,31,50a.83.83,0,0,0,1.06.26c.07,0,0-.07,0-.09-1-.31-.34-1.13-.28-1.22a.53.53,0,0,0,.74-.13.5.5,0,0,0,.09-.24ZM29.41,45.8a.44.44,0,0,1-.46.44.45.45,0,0,1-.35-.18c0-.23.27-.29.81-.26ZM19.06,37.56a.53.53,0,0,0,.1.29c.09.12.08.19,0,.23s-.1.05-.23,0a.48.48,0,0,0-.29-.1.26.26,0,1,0-.12.51h.12a.43.43,0,0,0,.29-.1c.13-.08.19-.07.23,0a2.68,2.68,0,0,1-.06.8.62.62,0,0,0-.52.52c0,.42.45.67.71.81.27-.14.72-.39.72-.81a.62.62,0,0,0-.52-.52,3.06,3.06,0,0,1-.07-.8s.11,0,.23,0a.47.47,0,0,0,.3.1.26.26,0,0,0,.32-.18.27.27,0,0,0-.19-.33h0a.17.17,0,0,0-.1,0,.47.47,0,0,0-.3.1c-.12.08-.19.07-.23,0s-.05-.11,0-.23a.52.52,0,0,0,.09-.29.26.26,0,1,0-.51-.13v0a.2.2,0,0,0,0,.11Zm.26,3.13a.52.52,0,1,0,.51.51.51.51,0,0,0-.51-.51Zm0,5a10.93,10.93,0,0,1,3.22.39c0-1,0-1.62.6-1.53-.32-.88,1.08-1.22,1.08-2.36,0-.75-.53-.84-.68-.84-.47,0-.4.3-.79.3-.05,0-.1,0-.1,0s.11.35.29.35.25-.24.43-.24.19.06.19.31a2.39,2.39,0,0,1-.69,1.44.4.4,0,0,0-.34-.19.48.48,0,0,0-.42.51.87.87,0,0,0,.05.28.67.67,0,0,1-.32.1.38.38,0,0,1-.42-.35v-.08c0-.83,1.11-1.56,1.11-2.6a1,1,0,0,0-.94-1h-.1c-.74,0-.61.68-1.25.68,0,0,0,0,0,0s.11.42.44.42.46-.62.78-.62c.11,0,.3.07.3.49a4.1,4.1,0,0,1-.4,1.36.51.51,0,0,0-.33-.15.54.54,0,0,0-.48.59h0a.75.75,0,0,0,.22.53c-.16.21-.33.38-.55.38-.45,0-.65-.25-.65-.53s.55-.41.55-.88a.45.45,0,0,0-.39-.5h0A.48.48,0,0,1,19,42a.45.45,0,0,0-.41.49h0c0,.47.55.57.55.87s-.2.54-.65.54c-.23,0-.39-.17-.56-.38a.75.75,0,0,0,.22-.53.54.54,0,0,0-.47-.59h0a.44.44,0,0,0-.32.15,3.87,3.87,0,0,1-.4-1.36c0-.42.18-.49.3-.49.32,0,.42.62.78.62s.45-.38.45-.42,0,0-.06,0c-.64,0-.5-.69-1.25-.69a1,1,0,0,0-1,.9v.1c0,1.05,1.1,1.78,1.1,2.6a.39.39,0,0,1-.33.44H16.8a.76.76,0,0,1-.32-.11.63.63,0,0,0,.06-.27.48.48,0,0,0-.42-.52.44.44,0,0,0-.34.19,2.36,2.36,0,0,1-.69-1.43c0-.25.11-.32.19-.32s.18.25.43.25.29-.23.29-.36-.05,0-.1,0c-.4,0-.32-.3-.79-.3-.16,0-.69.08-.69.84,0,1.14,1.4,1.48,1.08,2.35.6-.08.59.5.6,1.54a10.93,10.93,0,0,1,3.22-.39Zm-3.78,1.54c-.56.12-1,.23-1.14.29,0-.25.1-.48.32-.53,0,0,0,0,0,0l0,0c-.5-.33-.77.3-.77.32-.18,0-.45,0-.45.29,0,.71-1.64,1.11-2,1.17a1.91,1.91,0,0,1,.95,1.1,3.92,3.92,0,0,1,1.18-.92c.13,0,.17.16.18.26s0,0,.06,0c.25-.38.13-.46.11-.57a.31.31,0,0,1,.25-.38h.13v4.77l-.19,0c-.09,0-.79-.58-1.59-1.13s-1.23-.22-2.14.27a2.8,2.8,0,0,1-2.4.06C7,52.91,6.65,55,6.65,55a2.14,2.14,0,0,1-.86.18c-.79,0-.93-.47-.93-.76,0-1.21,1.51-1.73,1.51-2.93A1.43,1.43,0,0,0,5,50.05H3.48a.79.79,0,0,1-.76-.55c0-.06-.09,0-.07,0s-.06.26-.06.56a.73.73,0,0,0,.66.78h.16A1.45,1.45,0,0,0,4,50.76s.08,0,0,0a1,1,0,0,0-.15.9,0,0,0,0,0,.06,0,1.31,1.31,0,0,1,1.25-1,.75.75,0,0,1,.8.68.92.92,0,0,1,0,.16c0,1-1.71,1.68-1.71,3S5.67,56.21,6.5,56c0,1.36-1.6,1.82-1.65.85,0,0,0-.05-.06,0-.2.48-.12.9.49,1,0,0,0,0,0,.06-.6.38-.27,1.87-.24,2.31,0,.64-.59.56-.64.55s0,0,0,.05a.67.67,0,0,0,1,.09h0l0,0c.42.13.16.48-.12.67,0,0,0,.06,0,.06s.71.06.82-.46a.69.69,0,0,0,.8.18c.13-.07.73-.29.79.4,0,0,0,0,0,0a.55.55,0,0,0,0-.79.58.58,0,0,0-.35-.19.46.46,0,0,1,.65,0l.07.09s0,0,0,0c0-.73-.56-.8-.94-.48,0-.08-.15-.49.43-.47,0,0,.05,0,0-.05a.56.56,0,0,0-.78-.09h0a.47.47,0,0,0-.13.15c-.2.24-.7.14-.75.14.16-2.54,2.39-1.64,2.7-2.88,0-.06,0,0,0,0,.08.3.84.34,1-.25,0,0,0-.07,0,0-.65.64-2.11-1.37-.12-3a2.89,2.89,0,0,1,3.8-.16.22.22,0,0,1-.16.29h0s0,0,0,.06a.44.44,0,0,0,.5-.11c.37.25.05.57-.09.66s0,0,0,0a.57.57,0,0,0,.62-.47l.06,0v1.43c0,2.06,2.36,2.34,5,4.08,2.6-1.74,5-2,5-4.08V54.18l.06,0a.58.58,0,0,0,.62.48s.05,0,0-.06-.45-.41-.1-.66a.43.43,0,0,0,.5.11c.05,0,0,0,0-.05a.24.24,0,0,1-.17-.29h0a2.89,2.89,0,0,1,3.8.15c2,1.65.53,3.67-.11,3,0,0,0,0,0,0,.14.59.9.55,1,.25,0,0,0,0,.06,0,.3,1.23,2.54.33,2.7,2.87-.05,0-.55.1-.75-.14a.54.54,0,0,0-.75-.19.51.51,0,0,0-.16.13s0,.05,0,.05c.58,0,.46.4.44.47-.38-.32-1-.25-.94.48,0,.06,0,.05,0,0a.47.47,0,0,1,.63-.16h0l.09.08a.55.55,0,0,0-.48.62.52.52,0,0,0,.18.35s0,.06,0,0c.06-.68.67-.46.79-.4a.7.7,0,0,0,.8-.17c.12.51.77.45.83.45s.05,0,0-.06c-.28-.19-.54-.54-.12-.67a.68.68,0,0,0,1,0h0l0,0c0-.05,0-.06,0-.05s-.69.09-.64-.54c0-.44.35-1.94-.25-2.32,0,0,0,0,0-.06.6-.13.68-.55.48-1,0-.07-.06-.05-.06,0,0,1-1.6.5-1.65-.85.83.21,2.26-.08,2.26-1.44s-1.7-2.05-1.7-3a.73.73,0,0,1,.62-.83h.16a1.32,1.32,0,0,1,1.26,1s0,0,.06,0a1,1,0,0,0-.16-.9s0-.07.05,0a1.45,1.45,0,0,0,.54.11.74.74,0,0,0,.82-.62h0v-.16c0-.3-.1-.45-.07-.55s0-.08-.06,0a.77.77,0,0,1-.76.55H33.87a1.45,1.45,0,0,0-1.58,1.3h0a1,1,0,0,0,0,.17c0,1.2,1.52,1.72,1.52,2.93,0,.28-.14.76-.93.76A2.37,2.37,0,0,1,32,55s-.34-2.13-1.38-2.86a2.84,2.84,0,0,1-2.4-.06c-.91-.5-1.34-.82-2.14-.27S24.58,53,24.5,53l-.19,0V48.17a.32.32,0,0,1,.38.25.29.29,0,0,1,0,.13c0,.11-.14.2.11.57,0,0,.05,0,.05,0s.06-.26.19-.26a4.18,4.18,0,0,1,1.18.92,1.88,1.88,0,0,1,1-1.1c-.38-.06-2-.46-2-1.18,0-.23-.27-.29-.45-.28,0,0-.27-.65-.78-.32,0,0,0,0,0,0h0c.22,0,.31.28.32.53a17.8,17.8,0,0,0-4.92-.72,17.88,17.88,0,0,0-3.1.29v1.66h-.67V47.18h0m-4.45,17a.39.39,0,0,1-.29-.42v-1a7.15,7.15,0,0,0-2.71-.41c-1.34,0-1.75.3-1.77.41l-.36,2s.54-.49,2.48-.36c2.33.14,4.75,1.52,4.75,0v-.86c-1.84,0-2.1.58-2.1.67Zm14.34-.66v.86c0,1.47,2.42.1,4.75,0,1.94-.13,2.48.36,2.48.36l-.36-2c0-.11-.43-.41-1.77-.41a7.57,7.57,0,0,0-2.71.41v1a.4.4,0,0,1-.3.42c0-.1-.28-.68-2.11-.68Zm-6.12-.89c3.75,0,7.56.2,8.06.77,0,0,.06,0,.06,0v-2c0-.58-3.93-.92-8.13-.92s-8.12.34-8.12.92v2s0,.08.06,0c.5-.56,4.31-.76,8.06-.76ZM16,53.21l-.38-.1,0,0-.44-.2h.39s0,0,0,0l-.34-.34.44.17s0,0,0,0l-.29-.43.43.29s0,0,0,0c-.1-.23-.2-.5-.2-.5l.39.37s0,0,0,0-.1-.5-.1-.5l.28.42s0,0,0,0,0-.46,0-.46l.18.42s0,0,.05,0l.14-.35,0,.48h-.06l-.08.57c.57-.13,1.27-1.1,1.82-1.1s.88.76,2.07.37A3.46,3.46,0,0,1,21,53.62c.46.43,1.11.28,1.11-.17,0-.62-.68-.74-.68-1.38a.7.7,0,0,1,.7-.7h.05c.3,0,.72.12,1,.12a.38.38,0,0,0,.38-.3c0-.06.1,0,.1,0a2,2,0,0,1,0,.28c0,.41-.6.46-.67.41s-.05,0,0,0,.07.31,0,.47,0,0,0,0a.89.89,0,0,0-.71-.65.31.31,0,0,0-.33.3v0c0,.37.73.7.73,1.46s-.78,1-1.56.78c0,.75,1.14,1.19,1.16.66,0,0,0,0,0,0,.16.23.09.4-.12.49.19.09.23.48.28.71s.46.16.48.15,0,0,0,0a.41.41,0,0,1-.51.23h0c-.2.14,0,.26.22.32s0,0,0,0-.41.14-.55-.1a.37.37,0,0,1-.39.24c-.14,0-.24.14-.2.34,0,0,0,0,0,0a.31.31,0,0,1-.17-.4.31.31,0,0,1,.16-.16.25.25,0,0,0-.34.1h0A.14.14,0,0,0,21,57s0,0,0,0c-.15-.4.18-.51.41-.41a.36.36,0,0,0-.45-.19s0,0,0,0a.3.3,0,0,1,.38-.19l.11.07c.14.09.39,0,.41,0-.5-1-1.47-.16-1.69-.94,0,0,0,0,0,0s-.48.18-.56-.15c0,0,0,0,0,0s.2.12.37-.14a.92.92,0,0,0,.13-.54,1.71,1.71,0,0,0-1.54-1.62,3,3,0,0,0-1.71.58l.44.1a.7.7,0,0,1-.75.62l-.12,0,.07-.52a.63.63,0,0,0-.33.22s0,0,0,0h0a.42.42,0,0,1,.23-.48s0,0,0,0a.45.45,0,0,0-.37.2s0,0,0,0A.3.3,0,0,1,16,53.2Zm1.31,3.46c-.17.2-.32,0-.54,0a.25.25,0,0,0-.25.23h0s0,0,0,0a.3.3,0,0,1,0-.42.26.26,0,0,1,.2-.1.26.26,0,0,0-.38,0h0l0,0s0,0,0,0c0-.4.31-.43.52-.25,0-.16-.06-.26-.23-.27s0,0,0,0a.33.33,0,0,1,.21-.11c.22,0,.25.28.4.28s.53-.29.56-.32a2.69,2.69,0,0,1-.17-.93h0c-.1.06-.37.06-.37-.27,0,0,0,0,0,0s.31,0,.4-.13.65-.91,1.39-.91a1.09,1.09,0,0,1,.54.21c-.26.3,0,.6.18.56,0,0,0,0,0,0-1,.36-1.41.51-1.41,1.32,0,.43.15.66.4.61,0,0,0,0,0,0a.38.38,0,0,1-.28.14c-.2,0-.24-.11-.35-.11s-.47.21-.47.39a.27.27,0,0,0,.17.24v0a.36.36,0,0,1-.44-.24Zm2.56-7.92c-.3,0-.5,0-.49.15s.34.13.49-.15Zm-1.12.75a1.5,1.5,0,0,1,.47,0,.05.05,0,0,1,0,0h0l0,0c-.45.06-.47.26-.76.26a.35.35,0,0,1-.33-.36.3.3,0,0,1,0-.1s0,0,.05,0,.2.24.55.15Zm-5.81,9.93c.3.38.58,0,1,0,.2,0,.43.06.47.45,0,0,0,0,0,0a.56.56,0,0,0,0-.79.54.54,0,0,0-.35-.16.5.5,0,0,1,.71,0h0l0,0s0,0,0,0c0-.73-.55-.78-.95-.47-.07-.28.14-.47.42-.47,0,0,0,0,0,0-.49-.53-.86.13-.94.24-.2.26-.9-.23-1.18-.52a2.29,2.29,0,0,0,.62-1.25v-.1s0,0,0,0a.46.46,0,0,0,.23.06c.14,0,.41,0,.41-.55,0,0,0,0,0,0a.26.26,0,0,1-.22.13c-.5,0-1.54-1.67-2.78-1.67a2,2,0,0,0-1.24.57.39.39,0,0,1,.17.4.46.46,0,0,1-.37.36s0,0,0,0a12.92,12.92,0,0,1,2,.89c.3.26.25.76.07,1.45s-.53.57-.66.55,0,0,0,0a.64.64,0,0,0,.52.27c.32,0,.45-.2.61-.2s.87.4.87.71a.56.56,0,0,1-.3.44s0,0,0,0,.68.06.79-.43Zm13.61.42s0,0,0,0a.57.57,0,0,1-.3-.44c0-.3.58-.71.87-.71s.28.2.61.2a.71.71,0,0,0,.52-.27s0,0,0,0-.5.11-.67-.54-.24-1.19.07-1.45a11.28,11.28,0,0,1,2-.89s0,0,0,0a.46.46,0,0,1-.37-.37.42.42,0,0,1,.17-.4,2.08,2.08,0,0,0-1.25-.56C27,54.33,25.93,56,25.42,56a.28.28,0,0,1-.21-.13s0,0,0,0c0,.5.26.55.4.55a.46.46,0,0,0,.23-.06s0,0,0,0,0,.08,0,.11a2.27,2.27,0,0,0,.63,1.24c-.28.3-1,.79-1.18.52-.08-.1-.45-.76-.94-.24,0,0,0,0,0,0,.28,0,.5.19.42.48-.4-.32-1-.27-1,.47a0,0,0,0,0,0,0h0a.51.51,0,0,1,.7-.1l0,0a.54.54,0,0,0-.5.59.56.56,0,0,0,.17.36s0,0,0,0c.05-.38.28-.45.47-.45.39,0,.67.36,1,0,.11.5.66.45.8.43Zm-10-9.63c0,.06-.17,0-.22,0h0c0,.07.16.28.34.28a.41.41,0,0,0,.25-.11s.72.24,1.08.34a1.24,1.24,0,0,0-.25.65c-.28-.18-1.44-.8-1.44-.8l-.36.49c-.06.08-.35-.13-.29-.21l.27-.38c-.09-.1-.31,0-.37,0s0,0,0,0a.38.38,0,0,1,.51-.2c0-.21-.31-.14-.39-.12s0,0,0,0a.49.49,0,0,1,.62-.13l.12-.17-.25-.26.15-.21.18.23,1.34-1.83a1.12,1.12,0,0,1,.4-.14,2,2,0,0,1,0,.42l-1.31,1.85.28.09-.15.21L16.73,50Zm4.68-.3c0,.17.1.42.33.35,0,0,0,0,0,0,0,.18-.37.35-.52.13a.49.49,0,0,0,.13.68h0l.06,0s0,0,0,0h0a.38.38,0,0,1-.53-.08.16.16,0,0,1,0-.07.49.49,0,0,0-.06.7,1.49,1.49,0,0,1-1.27.12,2.11,2.11,0,0,0-1.24-.4c.08-.72.44-.92,1.1-1s.6-.33.53-.51a1,1,0,0,0-.51.11.21.21,0,0,1,0-.2.84.84,0,0,1-.05-.17c.37,0,.44-.08.44-.08.07-.39-.33-.43-.63-.22a.34.34,0,0,1-.11-.29.12.12,0,0,1-.07-.11c0-.09.44-.34.55-.37s.19-.3.66-.26a1.65,1.65,0,0,0-.09-.7s0-.06,0,0,.33.48.44.49a3.94,3.94,0,0,1,.55-.26,4.17,4.17,0,0,1,.1.6c.07.09.48,0,.66.08s0,0,0,0a1.47,1.47,0,0,0-.63.33,1.69,1.69,0,0,1,.13,1Z" style="fill:#fff"/></svg>