<svg xmlns="http://www.w3.org/2000/svg" xmlns:xlink="http://www.w3.org/1999/xlink" viewBox="0 0 232.14 70.82"><defs><clipPath id="a"><rect x="116.92" width="33.01" height="28.59" style="fill:none"/></clipPath><clipPath id="b"><rect x="143.48" y="15.53" width="33.01" height="28.59" style="fill:none"/></clipPath><clipPath id="c"><rect x="170.05" width="33.01" height="28.59" style="fill:none"/></clipPath></defs><g style="clip-path:url(#a)"><path d="M134.07,7.94l-.2-.21a4.18,4.18,0,0,0-2.41-.92.73.73,0,0,0,.31-.24,1,1,0,0,0,0-1.06l1-.44.11.11a.55.55,0,1,0-.1-.77.56.56,0,0,0-.11.43l-1.07.46a1.52,1.52,0,0,0-.34-.33,1.69,1.69,0,0,0-.6-.3l.16-1.24a.55.55,0,0,0,.47-.6.54.54,0,0,0-.61-.47.54.54,0,0,0-.25,1,.37.37,0,0,0,.14.07l-.16,1.22a.93.93,0,0,0-.83.3.84.84,0,0,0-.13.65,4.75,4.75,0,0,0-2.76-2l-.39,0c-1.71,0-2.16,2-2.18,2.08a2.17,2.17,0,0,0,1.35,2.65l.28.07a2.51,2.51,0,0,0,.55.06,3.49,3.49,0,0,0,.85-.12,2,2,0,0,0,.08.49l.2,1.1-.49.66.2.15.5-.67,1.4-.12a.07.07,0,0,0,.06,0,2.51,2.51,0,0,0,.46-.16,3.44,3.44,0,0,0,1,1.62l.31.24a1.92,1.92,0,0,0,1,.28,3.11,3.11,0,0,0,2-.92,2.17,2.17,0,0,0,.22-3m-8.17-.27-.2,0a1.54,1.54,0,0,1-.92-1.86c0-.06.36-1.56,1.54-1.57l.3,0A4.12,4.12,0,0,1,129,6a2.2,2.2,0,0,0-1.33.85,2.27,2.27,0,0,0-.36.69,2.81,2.81,0,0,1-1.38.12m1.47.51s1.37-.52,2.67,1.21a1.92,1.92,0,0,1-.35.23,3.43,3.43,0,0,0-2.32-1.44m6,2.25s-1.12,1.14-2.13.53a1.33,1.33,0,0,1-.23-.18,2.93,2.93,0,0,1-.86-1.49,1.88,1.88,0,0,0,.24-.25,3.65,3.65,0,0,0-2.73-1.87s1.57-.59,3,1.41a2.64,2.64,0,0,0,.17-.47,2.73,2.73,0,0,0-2.25-1.7,2.07,2.07,0,0,1,2.26,1s0,0,0,.06a4,4,0,0,1,2.54.78l.15.15a1.54,1.54,0,0,1-.19,2.07" style="fill:#ffb71b"/><path d="M137.22,3.63a1.49,1.49,0,0,0,0,.21,3.11,3.11,0,0,0,.74,1.79.58.58,0,0,0-.29,0,.74.74,0,0,0-.57.57l-.77-.34a.43.43,0,0,0-.45-.48.41.41,0,0,0-.37.45.42.42,0,0,0,.45.37.39.39,0,0,0,.29-.17l.81.36a1.29,1.29,0,0,0,.14.83l-.76.56a.39.39,0,0,0-.57,0,.4.4,0,0,0,.05.57.41.41,0,0,0,.57,0,.45.45,0,0,0,.1-.31.49.49,0,0,0,0-.11l.75-.55a.66.66,0,0,0,.6.3.58.58,0,0,0,.42-.26,3.56,3.56,0,0,0,.33,2.54,1.88,1.88,0,0,0,.18.24c.89.93,2.22.14,2.26.12a1.63,1.63,0,0,0,.75-2.11,1.14,1.14,0,0,0-.1-.19,2,2,0,0,0-.25-.33,2.8,2.8,0,0,0-.5-.41,1.23,1.23,0,0,0,.22-.29l.5-.68.61-.07,0-.19-.62.07-.79-.71h-.05a1.48,1.48,0,0,0-.33-.17,2.61,2.61,0,0,0,.37-1.39l0-.29a1.48,1.48,0,0,0-.36-.69A2.29,2.29,0,0,0,139,2.22a1.63,1.63,0,0,0-1.74,1.4m4.08,4.6s0,.1.07.14a1.16,1.16,0,0,1-.54,1.47s-1,.61-1.66,0L139,9.62a3.1,3.1,0,0,1-.23-2.22,1.63,1.63,0,0,0,1.15.29,1.72,1.72,0,0,0,.56-.15,2.05,2.05,0,0,1,.78.68m-.48-1.06s-1-.49-.72-2.09a1.57,1.57,0,0,1,.31.08,2.56,2.56,0,0,0,.41,2m-1.88-4.45c.05,0,1.21,0,1.4.89a2.08,2.08,0,0,1,0,.22A2.28,2.28,0,0,1,140,5.06h-.26a2.77,2.77,0,0,0,.38,2.46S139,7,139.33,5.14a1.54,1.54,0,0,0-.35.15,2.06,2.06,0,0,0,.23,2.11,1.59,1.59,0,0,1-.65-1.74l0,0a2.9,2.9,0,0,1-.89-1.78.81.81,0,0,1,0-.16,1.16,1.16,0,0,1,1.22-1" style="fill:#ffb71b"/><path d="M141.68,28.59H125.17L116.92,14.3,125.17,0h16.51l8.25,14.29Zm-16-.86h15.51l7.76-13.43L141.18.87H125.67l-7.75,13.42Z" style="fill:#ffb71b"/><path d="M147.31,17.11a3,3,0,0,0-2.83-.6,2.46,2.46,0,0,0-2.34-1.78,2.5,2.5,0,0,0-2.2,1.44,2.59,2.59,0,0,0-.25,1.2h0c-.06,0-.15,0-.22-.17a2.22,2.22,0,0,1-.18-.92,2.41,2.41,0,0,1,1.51-2.21,2.61,2.61,0,0,0-2.56-2.67h-.16a2.92,2.92,0,0,1-4-.69,2.67,2.67,0,0,0-2.8,2.5,2.62,2.62,0,0,0-2.94,2.26c0,.09,0,.18,0,.27a2.54,2.54,0,0,0,.55,1.54c0,.11-.19.1-.31,0a2.52,2.52,0,0,1-.56-3.56,2.74,2.74,0,0,0-1.2-.27,2.64,2.64,0,0,1-3.31,1.71,2.72,2.72,0,0,1-.66-.33,2.52,2.52,0,0,0-2.55,2.5h0a2.44,2.44,0,0,0,.55,1.54l-.21.11,3.73,6.47a2.67,2.67,0,0,1,2.48-1.38c.14,0,.23.08.22.18a2.74,2.74,0,0,0-1.89,2.6l.5.86h14.55A2.51,2.51,0,0,0,139,24.41a3.52,3.52,0,0,0-.42-.15c0-.1.07-.17.21-.17a2.61,2.61,0,0,1,2.79,2.42v.13a2.72,2.72,0,0,1,0,.49Zm-21.12,5.14a2.19,2.19,0,1,1,2.43-2.18,2.32,2.32,0,0,1-2.43,2.18m6.84,5.4A2.43,2.43,0,1,1,135.7,25,2.68,2.68,0,0,1,133,27.65M134.71,19a2.21,2.21,0,0,1,.88-4.34,2.21,2.21,0,0,1,1.78,2.17A2.46,2.46,0,0,1,134.71,19m4.91,2.23a2.42,2.42,0,1,1,2.8,2l-.3,0a2.28,2.28,0,0,1-2.5-2" style="fill:#ffb71b"/></g><g style="clip-path:url(#b)"><path d="M169.41,25.11a2.68,2.68,0,0,0-.28-.3,5.66,5.66,0,0,0-3.36-1.28,1,1,0,0,0,.44-.34,1.35,1.35,0,0,0,0-1.49l1.44-.61a.75.75,0,0,0,.15.16.77.77,0,0,0,1.07-.15.76.76,0,0,0-1.21-.92.77.77,0,0,0-.15.59l-1.5.64a2.56,2.56,0,0,0-.47-.46,2.65,2.65,0,0,0-.84-.42l.22-1.72a.76.76,0,1,0-.84-.67.78.78,0,0,0,.3.52l.19.1-.22,1.71a1.24,1.24,0,0,0-1.16.41,1.15,1.15,0,0,0-.19.91c-.84-1.12-2.21-2.56-3.85-2.8l-.54-.06c-2.4,0-3,2.81-3.05,2.9a3,3,0,0,0,1.89,3.7,2.22,2.22,0,0,0,.39.11,3.84,3.84,0,0,0,.76.08,5.34,5.34,0,0,0,1.2-.16,2.93,2.93,0,0,0,.1.67l.29,1.55-.69.91.28.21.7-.92,2-.17a.19.19,0,0,0,.09,0,2.69,2.69,0,0,0,.64-.22,4.86,4.86,0,0,0,1.4,2.26,4.59,4.59,0,0,0,.44.33,2.63,2.63,0,0,0,1.39.39,4.22,4.22,0,0,0,2.72-1.28,3,3,0,0,0,.32-4.14M158,24.73l-.29-.07a2.17,2.17,0,0,1-1.29-2.6c0-.09.51-2.19,2.16-2.2l.41,0a5.79,5.79,0,0,1,3.29,2.51,3.16,3.16,0,0,0-1.87,1.19,3.81,3.81,0,0,0-.5,1,3.76,3.76,0,0,1-1.91.17m2,.71s1.92-.72,3.73,1.7a2.76,2.76,0,0,1-.49.32,4.8,4.8,0,0,0-3.24-2m8.4,3.15c-.06.06-1.57,1.6-3,.75a4,4,0,0,1-.33-.25A4.19,4.19,0,0,1,163.94,27a3.61,3.61,0,0,0,.33-.35A5.08,5.08,0,0,0,160.46,24s2.19-.83,4.22,2a3,3,0,0,0,.23-.66s-.46-1.82-3.15-2.38c0,0,1.61-.6,3.18,1.34,0,0,0,.06,0,.09a5.65,5.65,0,0,1,3.55,1.08l.2.21a2.16,2.16,0,0,1-.26,2.89" style="fill:#ffb71b"/><path d="M166.38,32.52l-.12.2a3.34,3.34,0,0,0-.22,2.07.55.55,0,0,0-.25-.2.77.77,0,0,0-.82.23l-.56-.71a.41.41,0,0,0,.07-.11.44.44,0,1,0-.58.24.43.43,0,0,0,.35,0l.58.74a1.35,1.35,0,0,0-.19.33,1.39,1.39,0,0,0-.1.53l-1,.13a.44.44,0,0,0-.56-.25.46.46,0,0,0,0,.83.44.44,0,0,0,.58-.21l0-.05a1,1,0,0,0,0-.12l1-.13a.72.72,0,0,0,.41.59.66.66,0,0,0,.53,0,3.78,3.78,0,0,0-1,2.55,1.77,1.77,0,0,0,.05.32c.36,1.33,2,1.27,2.06,1.27a1.74,1.74,0,0,0,1.78-1.6,1,1,0,0,0,0-.24,1.61,1.61,0,0,0-.07-.43,3,3,0,0,0-.26-.65,1.44,1.44,0,0,0,.36-.15l.82-.39.61.25.07-.19-.62-.25L168.92,36s0,0,0,0a1.46,1.46,0,0,0-.22-.33,2.74,2.74,0,0,0,1.05-1.11,1.88,1.88,0,0,0,.12-.3,1.56,1.56,0,0,0,0-.83,2.52,2.52,0,0,0-1.12-1.33,1.75,1.75,0,0,0-2.35.44m1.48,6.41v.17c-.07,1.07-1.23,1.1-1.26,1.1s-1.29,0-1.54-.88c0,0,0-.12,0-.23a3.28,3.28,0,0,1,.91-2.2,1.76,1.76,0,0,0,.94.86,1.81,1.81,0,0,0,.6.14,2.09,2.09,0,0,1,.38,1m.09-1.25a2,2,0,0,1,.4-2.33,2.73,2.73,0,0,1,.25.23,2.77,2.77,0,0,0-.65,2.1m.51-5.14s1.13.63.86,1.55a1.1,1.1,0,0,1-.09.21,2.37,2.37,0,0,1-1,1,2,2,0,0,0-.25-.14,3,3,0,0,0-.89,2.51s-.78-1.1.47-2.64a2.6,2.6,0,0,0-.4,0,2.18,2.18,0,0,0-.85,2.1,1.67,1.67,0,0,1,.27-2l.05,0a3.21,3.21,0,0,1,.08-2.14l.09-.14a1.23,1.23,0,0,1,1.64-.29" style="fill:#ffb71b"/><path d="M168.24,44.12h-16.5l-8.25-14.29,8.25-14.3h16.5l8.25,14.3Zm-16-27.72-7.75,13.43,7.75,13.43h15.51l7.76-13.43L167.74,16.4Z" style="fill:#ffb71b"/><path d="M150.49,23.29l1.57-2.77L151,18.63l-2.71,4.68Z" style="fill:#ffb71b"/><path d="M161.32,35.82,162.89,33l-1.62-2.75-3.19,0-1.57,2.78,1.62,2.75Z" style="fill:#ffb71b"/><path d="M156.05,38.92l1.57-2.77L156,33.4l-3.19,0-1.57,2.78L152.86,39Z" style="fill:#ffb71b"/><path d="M145.63,27.83l-1.15,2L145.74,32l1.15-2Z" style="fill:#ffb71b"/><path d="M150.7,35.86l1.57-2.78-1.62-2.75-3.19,0-1.32,2.34L148,35.88Z" style="fill:#ffb71b"/><path d="M147.82,24.05,146,27.24l1.38,2.34,3.19,0,1.58-2.78L150.5,24Z" style="fill:#ffb71b"/><path d="M156,32.65l1.57-2.78-1.62-2.75-3.19,0-1.57,2.78,1.62,2.74Z" style="fill:#ffb71b"/><path d="M152.33,39.23l-1.62-2.75-2.38,0,2.8,4.84Z" style="fill:#ffb71b"/><path d="M157.68,42.4l-1.62-2.74-3.19,0L151.53,42l.7,1.22h5Z" style="fill:#ffb71b"/></g><path d="M171,14.29,178.8.86h15.51l7.76,13.43-7.76,13.44H178.8ZM178.3,0l-8.25,14.29h0l8.25,14.3h16.51l8.25-14.3h0L194.81,0Z" style="fill:#ffb71b"/><path d="M171,14.29,178.8.86h15.51l7.76,13.43-7.76,13.44H178.8ZM178.3,0l-8.25,14.29h0l8.25,14.3h16.51l8.25-14.3h0L194.81,0Z" style="fill:#ffb71b"/><g style="clip-path:url(#c)"><path d="M177.62,12.31c-.25,0-.45.1-.45.35v2.57l-1.59.18a.89.89,0,0,0-.8.89v1.6a3.6,3.6,0,0,1,4.16,2.93,3.39,3.39,0,0,1,.06.64h2.35a.9.9,0,0,0,.9-.9h0V19.08l2.4-2.4h3.57L189.49,18c.29.29.65.17.94-.12s.41-.65.12-.94l-1.5-1.5a.73.73,0,0,0-.52-.21h-.88L187,10.7h-6.32a.84.84,0,0,0-.83.71L179.27,15l-1.2.13V12.65c0-.25-.2-.35-.44-.35m7-.1h1l.46,3h-1.5Zm-3.43,0h2.53v3.27l-3.05,3a.08.08,0,0,1,0-.12h0l.84-1.42h-1Z" style="fill:#ffb71b"/><path d="M195.2,2.42a3.94,3.94,0,0,0-1.84,2.21c-3.6,0-5.06,4.93-2.15,7.16-1.3,2.55,0,5.52,2.58,6,.07-.36.14-.73.22-1.1a5.83,5.83,0,0,0-.09-3.26c-.08-.22,0-.3,0-.31.73.63,1,2.52.92,3.68s-.6,5.92-.71,7.13h-5.81a3.58,3.58,0,1,0-4.94-1.11,3.46,3.46,0,0,0,1.11,1.11h-7.4A3,3,0,0,0,173.74,19l.87,1.51a1.26,1.26,0,0,1,1.53,2,1.28,1.28,0,0,1-.28.16l2.94,5.1h15.51l4.14-7.18-.13-2.78a3.45,3.45,0,0,0,1.85-.2l1.89-3.28Zm-8.76,20A1.57,1.57,0,1,1,188,20.87h0a1.56,1.56,0,0,1-1.56,1.57" style="fill:#ffb71b"/><path d="M177.51,4.84c.35.58-.44,1.84-.85,2.45a.08.08,0,0,0,0,.12.07.07,0,0,0,.09,0c.6-.39,1.92-1.1,2.44-.87s.95,2,1.1,2.74a.09.09,0,0,0,.1.06.07.07,0,0,0,.07-.06c.11-.69.58-2.44,1.14-2.74s1.86.43,2.44.84a.08.08,0,0,0,.12-.11c-.4-.61-1.12-1.8-.86-2.43s2.1-1,2.79-1.12a.08.08,0,0,0,.06-.1.09.09,0,0,0-.06-.07c-.71-.15-2.58-.51-2.8-1.11a2.4,2.4,0,0,1,.36-1.57h-4.88l-2,3.47a1.65,1.65,0,0,1,.72.5m2.89-3.39a2.18,2.18,0,1,1-2.19,2.18h0a2.18,2.18,0,0,1,2.19-2.18" style="fill:#ffb71b"/></g><path d="M2.92,53.85H2.83v12.4H.23V50.91h4.4L9.14,63.3h.09V50.91h2.6V66.25H7.43Z" style="fill:#e98945"/><path d="M23.9,66.25H21.42V65.5a5.76,5.76,0,0,1-3.28.89c-2.36,0-3.67-1.29-3.67-3.23,0-2.13,1.64-3.62,5.26-3.62l1.59,0V58.9c0-1.26-.74-2-2.57-2a8,8,0,0,0-3.3.7l-.37-2.22a10.13,10.13,0,0,1,4.16-.89c3.11,0,4.65,1.47,4.65,4.07Zm-5-2a4.79,4.79,0,0,0,2.4-.61V61.5c-.44,0-1.05,0-1.52,0-1.89,0-2.61.61-2.61,1.5s.63,1.33,1.73,1.33Z" style="fill:#e98945"/><path d="M25.86,54.67h1.4v-2.1l2.65-.23v2.34h2.92v2H29.91v5.47c0,1.34.7,1.92,1.73,1.92a5.88,5.88,0,0,0,1.5-.19v2.2a7.94,7.94,0,0,1-2.27.28c-2.15,0-3.6-1.21-3.6-3.85V56.71h-1.4Z" style="fill:#e98945"/><path d="M36.32,49.88a1.44,1.44,0,0,1,1.56,1.3.81.81,0,0,1,0,.22,1.45,1.45,0,0,1-1.4,1.5h-.16a1.4,1.4,0,0,1-1.54-1.25,2.09,2.09,0,0,1,0-.25,1.45,1.45,0,0,1,1.39-1.52Zm1.33,16.37H35V54.75l2.64-.12Z" style="fill:#e98945"/><path d="M45.55,66.46c-3.18,0-5.42-2-5.42-5.78s2.66-6.22,5.75-6.22,5.43,2,5.43,5.8S48.64,66.46,45.55,66.46Zm.17-9.66c-1.62,0-2.88,1.33-2.88,3.79s1.12,3.53,2.88,3.53,2.87-1.33,2.87-3.79-1.14-3.53-2.87-3.53Z" style="fill:#e98945"/><path d="M60.8,59.16A1.89,1.89,0,0,0,59.24,57a1.82,1.82,0,0,0-.57,0,5.21,5.21,0,0,0-2.24.44v8.81H53.78V54.74l2.58-.11v.84a5.39,5.39,0,0,1,3.06-.94c2.52,0,4,1.45,4,4.09v7.63H60.8Z" style="fill:#e98945"/><path d="M75,66.25H72.49V65.5a5.72,5.72,0,0,1-3.27.89c-2.36,0-3.67-1.29-3.67-3.23,0-2.13,1.63-3.62,5.26-3.62l1.59,0V58.9c0-1.26-.75-2-2.58-2a8,8,0,0,0-3.3.7l-.37-2.22a10.13,10.13,0,0,1,4.16-.89C73.42,54.53,75,56,75,58.6Zm-5-2a4.85,4.85,0,0,0,2.41-.61V61.5c-.45,0-1.06,0-1.52,0-1.9,0-2.62.61-2.62,1.5s.63,1.33,1.73,1.33Z" style="fill:#e98945"/><path d="M80.58,66.25H77.94V50.05l2.64-.14Z" style="fill:#e98945"/><path d="M88.28,54.46c2.82,0,4.58,1.71,4.58,4.73,0,.69,0,1.44-.07,2H85.63c.28,2.06,1.47,3,3.55,3a9.89,9.89,0,0,0,3.37-.56v2.2a10.55,10.55,0,0,1-3.69.61c-3.53,0-5.8-1.87-5.8-5.89S85.4,54.46,88.28,54.46Zm2,4.75c0-1.59-.85-2.62-2.2-2.62s-2.18.91-2.41,2.62Z" style="fill:#e98945"/><path d="M99.64,66.25V50.91h4.23c3.95,0,5.64,1.52,5.64,3.69a3.43,3.43,0,0,1-2.2,3.58v0a3.28,3.28,0,0,1,2.83,3.41c0,2.92-1.94,4.61-5.83,4.61Zm2.81-13.1v4.21h1.21c2,0,2.9-.68,2.9-2.22,0-1.36-.82-2-2.8-2Zm0,6.32V64h1.77c1.9,0,3-.79,3-2.31s-1-2.22-3.6-2.22Z" style="fill:#e98945"/><path d="M114.07,49.88a1.44,1.44,0,0,1,1.56,1.3,1.62,1.62,0,0,1,0,.22,1.46,1.46,0,0,1-1.41,1.5h-.16a1.4,1.4,0,0,1-1.54-1.25,1,1,0,0,1,0-.25,1.45,1.45,0,0,1,1.38-1.52Zm1.33,16.37h-2.64V54.75l2.64-.12Z" style="fill:#e98945"/><path d="M121.2,66.25c0,2.92-1.85,4.23-4.19,4.55l-.23-2.1a2.15,2.15,0,0,0,1.78-2.4V54.75l2.64-.12Zm-1.33-16.37a1.44,1.44,0,0,1,1.56,1.3.81.81,0,0,1,0,.22,1.45,1.45,0,0,1-1.4,1.5h-.16a1.4,1.4,0,0,1-1.54-1.25,2.09,2.09,0,0,1,0-.25,1.47,1.47,0,0,1,1.39-1.52Z" style="fill:#e98945"/><path d="M128.89,54.46c2.83,0,4.59,1.71,4.59,4.73,0,.69,0,1.44-.07,2h-7.16c.28,2.06,1.47,3,3.55,3a9.89,9.89,0,0,0,3.37-.56v2.2a10.55,10.55,0,0,1-3.69.61c-3.53,0-5.8-1.87-5.8-5.89S126,54.46,128.89,54.46Zm2,4.75c0-1.59-.85-2.62-2.2-2.62s-2.18.91-2.41,2.62Z" style="fill:#e98945"/><path d="M142.92,59.16A1.89,1.89,0,0,0,141.36,57a1.75,1.75,0,0,0-.56,0,5.29,5.29,0,0,0-2.25.44v8.81h-2.64V54.74l2.57-.11v.84a5.42,5.42,0,0,1,3.07-.94c2.52,0,4,1.45,4,4.09v7.63h-2.64Z" style="fill:#e98945"/><path d="M147.84,63.77a13.55,13.55,0,0,0,3.3.4c1.63,0,2.2-.49,2.2-1.19s-.33-1-1.57-1.31l-1.45-.42a3,3,0,0,1-2.48-3.09c0-2.08,1.78-3.62,4.82-3.62a14.12,14.12,0,0,1,2.83.25L155.32,57a17.44,17.44,0,0,0-2.8-.23c-1.43,0-2.06.49-2.06,1.1s.23.89,1.36,1.19l1.38.38c2,.53,2.78,1.56,2.78,3.11,0,2.38-1.85,3.83-4.82,3.83a13.23,13.23,0,0,1-3.32-.33Z" style="fill:#e98945"/><path d="M157.33,54.67h1.4v-2.1l2.64-.23v2.34h2.93v2h-2.93v5.47c0,1.34.7,1.92,1.73,1.92a5.82,5.82,0,0,0,1.5-.19v2.2a7.9,7.9,0,0,1-2.27.28c-2.15,0-3.6-1.21-3.6-3.85V56.71h-1.4Z" style="fill:#e98945"/><path d="M172.67,57.24a5.28,5.28,0,0,0-1.31-.16,3.63,3.63,0,0,0-2.25.84v8.33h-2.64V54.75l2.62-.12V56a3,3,0,0,1,2.43-1.43,5.08,5.08,0,0,1,1.34.17Z" style="fill:#e98945"/><path d="M182.94,66.25h-2.48V65.5a5.76,5.76,0,0,1-3.28.89c-2.36,0-3.67-1.29-3.67-3.23,0-2.13,1.64-3.62,5.26-3.62l1.59,0V58.9c0-1.26-.75-2-2.57-2a8,8,0,0,0-3.3.7l-.38-2.22a10.14,10.14,0,0,1,4.17-.89c3.11,0,4.65,1.47,4.65,4.07Zm-5-2a4.8,4.8,0,0,0,2.41-.61V61.5c-.44,0-1.05,0-1.52,0-1.89,0-2.62.61-2.62,1.5s.64,1.33,1.73,1.33Z" style="fill:#e98945"/><path d="M184.9,54.67h1.4v-2.1l2.64-.23v2.34h2.92v2h-2.92v5.47c0,1.34.7,1.92,1.73,1.92a5.82,5.82,0,0,0,1.5-.19v2.2a7.9,7.9,0,0,1-2.27.28c-2.15,0-3.6-1.21-3.6-3.85V56.71h-1.4Z" style="fill:#e98945"/><path d="M198.58,54.46c2.83,0,4.58,1.71,4.58,4.73,0,.69,0,1.44-.07,2h-7.15c.28,2.06,1.47,3,3.55,3a9.89,9.89,0,0,0,3.37-.56v2.2a10.6,10.6,0,0,1-3.7.61c-3.53,0-5.8-1.87-5.8-5.89S195.7,54.46,198.58,54.46Zm2,4.75c0-1.59-.84-2.62-2.2-2.62s-2.18.91-2.41,2.62Z" style="fill:#e98945"/><path d="M209,64h2.76c2.48,0,3.53,1,3.53,2.85,0,2.2-1.82,4-6,4-3.3,0-4.82-1.16-4.82-3a2.66,2.66,0,0,1,1.75-2.5v-.07a1.77,1.77,0,0,1-.91-1.55A1.87,1.87,0,0,1,206.58,62v-.07a3.2,3.2,0,0,1-1.66-3.06c0-2.8,1.89-4.33,4.81-4.33a6.7,6.7,0,0,1,1.78.24h3.74v1.75h-1.78v.07a2.77,2.77,0,0,1,.92,2.18c0,2.54-1.73,3.88-4.91,3.88a5.89,5.89,0,0,1-1.45-.19.82.82,0,0,0-.49.72C207.54,63.72,207.93,64,209,64Zm.49,4.86c2.53,0,3.44-.63,3.44-1.54,0-.68-.42-1-1.57-1.08l-3.83-.11a1.32,1.32,0,0,0-.63,1.21c0,.92.79,1.52,2.59,1.52Zm2.43-10.29a2,2,0,0,0-1.75-2.16,2,2,0,0,0-.49,0,2.09,2.09,0,0,0-2.25,1.91,2.8,2.8,0,0,0,0,.41,1.92,1.92,0,0,0,1.69,2.13,1.74,1.74,0,0,0,.51,0,2,2,0,0,0,2.29-1.71,1.82,1.82,0,0,0,0-.57Z" style="fill:#e98945"/><path d="M218.53,49.88a1.44,1.44,0,0,1,1.56,1.3.81.81,0,0,1,0,.22,1.45,1.45,0,0,1-1.4,1.5h-.16A1.4,1.4,0,0,1,217,51.65a2.09,2.09,0,0,1,0-.25,1.47,1.47,0,0,1,1.39-1.52Zm1.33,16.37h-2.64V54.75l2.64-.12Z" style="fill:#e98945"/><path d="M227.55,54.46c2.83,0,4.59,1.71,4.59,4.73,0,.69,0,1.44-.07,2h-7.16c.28,2.06,1.47,3,3.55,3a9.89,9.89,0,0,0,3.37-.56v2.2a10.6,10.6,0,0,1-3.7.61c-3.53,0-5.8-1.87-5.8-5.89S224.68,54.46,227.55,54.46Zm2,4.75c0-1.59-.84-2.62-2.2-2.62s-2.17.91-2.41,2.62Z" style="fill:#e98945"/><path d="M1.52,42.2H0L1.15,26.87H4.77c3.16,0,4.68,1.37,4.68,3.9,0,3.57-2.34,5.58-5.71,5.58A9.71,9.71,0,0,1,2,36.21Zm1-14-.51,6.69A12.27,12.27,0,0,0,3.88,35a3.69,3.69,0,0,0,4-3.42,2.54,2.54,0,0,0,0-.39c0-2.1-1-3-3.22-3Z" style="fill:#ffb71b"/><path d="M19.45,30.54,18.4,42.2H17l.16-1.8h-.07a4.13,4.13,0,0,1-3.39,2c-1.52,0-2.55-1-2.55-3.95,0-5.1,2.57-7.88,5.31-7.88a7.89,7.89,0,0,1,1.75.19ZM17.89,32a9.16,9.16,0,0,0-1.57-.14c-1.8,0-3.67,2.29-3.67,6.55,0,2,.63,2.71,1.45,2.71s2-.77,3.18-2.34Z" style="fill:#ffb71b"/><path d="M27.24,32.17a2.64,2.64,0,0,0-.63,0c-.91,0-1.94.91-2.8,2.4l-.66,7.67H21.7l.94-11.31,1.45-.21-.19,2.17H24c1.12-1.92,1.8-2.27,2.71-2.27a2.12,2.12,0,0,1,.75.14Z" style="fill:#ffb71b"/><path d="M28,30.79h1.34l.25-2.43,1.45-.26-.28,2.69h2.39L33,32H30.63l-.7,6.92c-.16,1.66.24,2.13,1,2.13a4.48,4.48,0,0,0,1.66-.3v1.33a5.15,5.15,0,0,1-2.06.33c-1.54,0-2.33-.91-2.08-3.39l.73-7H28Z" style="fill:#ffb71b"/><path d="M41.11,34.63c.19-2-.35-2.64-1.12-2.64s-1.85.6-3.37,2l-.75,8.25H34.42l1-11.31,1.45-.21-.16,1.8h.07c1.38-1.36,2.45-1.9,3.51-1.9,1.59,0,2.54,1,2.29,3.81l-.75,7.81H40.39Z" style="fill:#ffb71b"/><path d="M49.6,30.58c1.8,0,2.85,1,2.85,2.62,0,2.6-2.36,4.37-6.15,4.37,0,2.76.87,3.48,2.46,3.48a5.76,5.76,0,0,0,2.94-.84v1.4a6.53,6.53,0,0,1-3.41.8c-2.22,0-3.46-1.24-3.46-4.21C44.82,33.06,47.31,30.58,49.6,30.58Zm-.17,1.33c-1.24,0-2.69,1.45-3,4.47,2.87,0,4.51-1.36,4.51-3a1.32,1.32,0,0,0-1.18-1.45,1.71,1.71,0,0,0-.32,0Z" style="fill:#ffb71b"/><path d="M59.58,32.17a2.67,2.67,0,0,0-.63,0c-.91,0-1.94.91-2.8,2.4l-.66,7.67H54L55,30.89l1.45-.21-.19,2.17h.07c1.12-1.92,1.8-2.27,2.71-2.27a2.12,2.12,0,0,1,.75.14Z" style="fill:#ffb71b"/></svg>