<svg xmlns="http://www.w3.org/2000/svg" viewBox="0 0 246.46 119.29" >
  <path d="M221.61,2.81a21.88,21.88,0,0,0-7.76,1.4h0A236.7,236.7,0,0,0,159.74,32.8h0v0h0l0,0A105.43,105.43,0,0,0,193,67.06c.23.16.47.3.7.45h0l.27.18a16.94,16.94,0,0,0,24.75-20.91l1.42,0h1.5a22,22,0,1,0,0-44Z" style="fill:#fff;opacity:0.5;isolation:isolate"/>

  <path d="M86.86,32.83h0v0h0A236.27,236.27,0,0,0,32.7,4.22h0a22,22,0,1,0-7.76,42.59h1.49l1.43,0A16.94,16.94,0,0,0,52.61,67.7l.27-.17h0l.7-.45A105.66,105.66,0,0,0,86.81,32.87h0Z" style="fill:#fff;opacity:0.5;isolation:isolate"/>

  <path d="M245.68,24.51A24.5,24.5,0,0,0,212.55,1.58,239.14,239.14,0,0,0,157.82,30.5l-2.57,1.82h-.06a143.19,143.19,0,0,0-32.54-3.87,138.33,138.33,0,0,0-32.18,3.87h0L87.87,30.5A239.14,239.14,0,0,0,33.14,1.58,24.5,24.5,0,1,0,15.87,47.43a24.1,24.1,0,0,0,6.71,1.5A19.41,19.41,0,0,0,51.15,68.49l1-.55A107.2,107.2,0,0,0,86.82,38V78.37a25.66,25.66,0,0,0,7.1,18,109.68,109.68,0,0,0,28.33,21.73l.55.3.58-.27a92,92,0,0,0,28.77-21.89,25.38,25.38,0,0,0,6.71-17.59V38a107.45,107.45,0,0,0,34.66,29.95l1,.55a19.26,19.26,0,0,0,10.7,2.34,19.44,19.44,0,0,0,17.87-21.9A24.52,24.52,0,0,0,245.68,24.51ZM5,24.51H5A19.53,19.53,0,0,1,24.54,5a19.77,19.77,0,0,1,6.85,1.25A233.31,233.31,0,0,1,79.46,30.82a184.63,184.63,0,0,0-40.35,1.37A19.43,19.43,0,0,0,23.89,44,19.51,19.51,0,0,1,5,24.51Zm68.34,11A133.47,133.47,0,0,1,29.49,44a14.37,14.37,0,0,1,10.33-6.83,179.09,179.09,0,0,1,33.53-1.68ZM49.77,63.55h0l-1,.54,0,0A14.44,14.44,0,0,1,27.61,49a138.45,138.45,0,0,0,52.8-11A102.24,102.24,0,0,1,49.77,63.55Zm166.76-5.19h0a14.44,14.44,0,0,1-19.59,5.75h0l0,0-1-.54A102.36,102.36,0,0,1,165.28,38a138.64,138.64,0,0,0,52.8,11A14.32,14.32,0,0,1,216.53,58.36Zm-44.19-22.9h0a179.05,179.05,0,0,1,33.53,1.68A14.37,14.37,0,0,1,216.2,44,133.47,133.47,0,0,1,172.34,35.46Zm55.74,7.27A19.54,19.54,0,0,1,221.81,44a19.46,19.46,0,0,0-15.23-11.79,184.56,184.56,0,0,0-40.34-1.37A233.49,233.49,0,0,1,214.3,6.26a19.49,19.49,0,1,1,13.78,36.47Z"/>

  <g style="isolation:isolate">
    <g style="isolation:isolate">
      <path d="M131.3,42.48a13.52,13.52,0,0,1,6.64,1.66,13.18,13.18,0,0,1,4.84,4.5,11.44,11.44,0,0,1,1.81,6.24c0,3.44-.82,6.1-2.44,8a12.3,12.3,0,0,1-6.2,3.83v.37a13,13,0,0,1,6.94,3.77q2.88,2.94,2.88,8.78a12.81,12.81,0,0,1-1.89,6.79,13.69,13.69,0,0,1-5.09,4.9,14.06,14.06,0,0,1-7,1.81H106.21V42.48ZM132,61.3A5.8,5.8,0,0,0,133.66,57q0-3.1-1.69-4.47a6.08,6.08,0,0,0-3.91-1.36H117V63h11.07A5.39,5.39,0,0,0,132,61.3Zm1,21a5.63,5.63,0,0,0,1.7-4.13v-.66a5.79,5.79,0,0,0-5.83-5.83H117V84h11.88A5.59,5.59,0,0,0,133,82.25Z" style="fill:#fff"/>
    </g>
  </g>
</svg>