<svg xmlns="http://www.w3.org/2000/svg" viewBox="0 0 16 19"><path d="M15.49,4.76H11.65a.47.47,0,0,1-.47-.47V.5" style="fill:#bec4c9"/><path d="M11.4,0H2.84a1,1,0,0,0-1,1V17.54a1,1,0,0,0,1,1H15a1,1,0,0,0,1-1v-13Zm.29,1.71,2.59,2.56-2.59,0ZM2.88,17.53,2.85,1h7.82V4.3a1,1,0,0,0,1,1H15L15,17.5Z" style="fill:#707070"/><path d="M1,2.9H8.77a1,1,0,0,1,1,1V6.41a1,1,0,0,1-1,1H1a1,1,0,0,1-1-1V3.9A1,1,0,0,1,1,2.9Z" style="fill:#f66d53"/><g style="isolation:isolate"><g style="isolation:isolate"><path d="M3.06,4.14a.58.58,0,0,1,.22.22.52.52,0,0,1,.08.3A.53.53,0,0,1,3.28,5a.66.66,0,0,1-.22.22.71.71,0,0,1-.32.07H2.13v.86h-.3V4.06h.91A.72.72,0,0,1,3.06,4.14Zm-.93.19V5h.58A.39.39,0,0,0,3,4.9a.31.31,0,0,0,.1-.24A.29.29,0,0,0,3,4.43a.35.35,0,0,0-.25-.1Z" style="fill:#fff"/><path d="M5.08,4.18a.72.72,0,0,1,.3.32A1.07,1.07,0,0,1,5.49,5V5.2a1.07,1.07,0,0,1-.11.49.77.77,0,0,1-.3.32,1,1,0,0,1-.46.11H3.89V4.06h.73A.88.88,0,0,1,5.08,4.18Zm-.89.15V5.85h.43A.54.54,0,0,0,5,5.69a.72.72,0,0,0,.15-.49V5A.72.72,0,0,0,5,4.5a.54.54,0,0,0-.42-.17Z" style="fill:#fff"/><path d="M7.43,4.06l0,.27h-1V5h.86v.26H6.4v.9H6.1V4.06Z" style="fill:#fff"/></g></g><path d="M5,15.87c-.45-.44,0-1,1.37-1.7l.83-.4.33-.7c.18-.38.44-1,.59-1.39L8.37,11l-.19-.52A3.68,3.68,0,0,1,8,8.55c.19-.46.83-.41,1.09.08a3,3,0,0,1-.06,2l-.19.73.17.28a9.41,9.41,0,0,0,.6.81l.45.55.56-.07c1.78-.23,2.39.16,2.39.71,0,.7-1.4.76-2.57,0A2.61,2.61,0,0,1,10,13.2s-.74.15-1.1.25-.56.16-1.11.34l-.32.47A5.21,5.21,0,0,1,6.1,15.83,1,1,0,0,1,5,15.87Zm.71-.24a5.55,5.55,0,0,0,1.12-1.3L7,14.1l-.66.32c-1,.5-1.48,1-1.24,1.26s.3.14.63,0Zm6.59-1.81a.37.37,0,0,0,.09-.52.43.43,0,0,0-.16-.14,2,2,0,0,0-1-.12c-.35,0-.92.09-1,.12l.44.28a5.94,5.94,0,0,0,1,.39c.32.1.51.09.65,0ZM9.63,12.74A6.43,6.43,0,0,1,9.06,12a2.91,2.91,0,0,1-.32-.46s-.16.49-.28.78l-.4,1-.12.22s.62-.2.92-.28l1-.21ZM8.77,9.39a1.33,1.33,0,0,0,0-.79c-.28-.3-.63,0-.57.68a5,5,0,0,0,.16.93l.16.46.1-.35c.08-.31.15-.62.2-.93Z" style="fill:#f66d53"/></svg>